{
  "asset": {
    "version": "2.0",
    "generator": "THREE.GLTFExporter r182"
  },
  "scenes": [
    {
      "name": "Scene",
      "nodes": [
        0,
        1,
        8,
        9
      ]
    }
  ],
  "scene": 0,
  "nodes": [
    {
      "matrix": [
        1,
        0,
        0,
        0,
        0,
        1,
        0,
        0,
        0,
        0,
        1,
        0,
        0,
        0.5723518390507103,
        0,
        1
      ],
      "name": "Cylinder",
      "mesh": 0
    },
    {
      "matrix": [
        1,
        0,
        0,
        0,
        0,
        1,
        0,
        0,
        0,
        0,
        1,
        0,
        0,
        -0.01,
        0,
        1
      ],
      "name": "propAssembly",
      "children": [
        2,
        4,
        6
      ]
    },
    {
      "matrix": [
        -0.5000000000000006,
        0,
        0.8660254037844385,
        0,
        0,
        1,
        0,
        0,
        -0.8660254037844385,
        0,
        -0.5000000000000006,
        0,
        0,
        0,
        0,
        1
      ],
      "name": "prop3",
      "children": [
        3
      ]
    },
    {
      "matrix": [
        -0.271630771180327,
        -0.10657326764205528,
        -0.45437744527218304,
        0,
        -1.3877787807814457e-17,
        0.9735789028731603,
        -0.2283508701106557,
        0,
        0.8642748019537049,
        -0.11486504249602981,
        -0.4897296077635803,
        0,
        -0.3396436449350802,
        1,
        0.19706517561757683,
        1
      ],
      "name": "Cylinder",
      "mesh": 1
    },
    {
      "matrix": [
        -0.4999999999999998,
        0,
        -0.8660254037844388,
        0,
        0,
        1,
        0,
        0,
        0.8660254037844388,
        0,
        -0.4999999999999998,
        0,
        0,
        0,
        0,
        1
      ],
      "name": "prop2",
      "children": [
        5
      ]
    },
    {
      "matrix": [
        -0.271630771180327,
        -0.10657326764205528,
        -0.45437744527218304,
        0,
        -1.3877787807814457e-17,
        0.9735789028731603,
        -0.2283508701106557,
        0,
        0.8642748019537049,
        -0.11486504249602981,
        -0.4897296077635803,
        0,
        -0.3396436449350802,
        1,
        0.19706517561757683,
        1
      ],
      "name": "Cylinder",
      "mesh": 2
    },
    {
      "name": "prop1",
      "children": [
        7
      ]
    },
    {
      "matrix": [
        -0.271630771180327,
        -0.10657326764205528,
        -0.45437744527218304,
        0,
        -1.3877787807814457e-17,
        0.9735789028731603,
        -0.2283508701106557,
        0,
        0.8642748019537049,
        -0.11486504249602981,
        -0.4897296077635803,
        0,
        -0.3396436449350802,
        1,
        0.19706517561757683,
        1
      ],
      "name": "Cylinder",
      "mesh": 3
    },
    {
      "matrix": [
        1,
        0,
        0,
        0,
        0,
        1,
        0,
        0,
        0,
        0,
        1,
        0,
        0,
        0.95,
        0,
        1
      ],
      "name": "Sphere",
      "mesh": 4
    },
    {
      "matrix": [
        1,
        0,
        0,
        0,
        0,
        1,
        0,
        0,
        0,
        0,
        1,
        0,
        0,
        10,
        0,
        1
      ],
      "name": "HemisphereLight"
    }
  ],
  "bufferViews": [
    {
      "buffer": 0,
      "byteOffset": 0,
      "byteLength": 2352,
      "target": 34962,
      "byteStride": 12
    },
    {
      "buffer": 0,
      "byteOffset": 2352,
      "byteLength": 2352,
      "target": 34962,
      "byteStride": 12
    },
    {
      "buffer": 0,
      "byteOffset": 4704,
      "byteLength": 1568,
      "target": 34962,
      "byteStride": 8
    },
    {
      "buffer": 0,
      "byteOffset": 6272,
      "byteLength": 768,
      "target": 34963
    },
    {
      "buffer": 0,
      "byteOffset": 7040,
      "byteLength": 264,
      "target": 34962,
      "byteStride": 12
    },
    {
      "buffer": 0,
      "byteOffset": 7304,
      "byteLength": 264,
      "target": 34962,
      "byteStride": 12
    },
    {
      "buffer": 0,
      "byteOffset": 7568,
      "byteLength": 176,
      "target": 34962,
      "byteStride": 8
    },
    {
      "buffer": 0,
      "byteOffset": 7744,
      "byteLength": 72,
      "target": 34963
    },
    {
      "buffer": 0,
      "byteOffset": 7816,
      "byteLength": 264,
      "target": 34962,
      "byteStride": 12
    },
    {
      "buffer": 0,
      "byteOffset": 8080,
      "byteLength": 264,
      "target": 34962,
      "byteStride": 12
    },
    {
      "buffer": 0,
      "byteOffset": 8344,
      "byteLength": 176,
      "target": 34962,
      "byteStride": 8
    },
    {
      "buffer": 0,
      "byteOffset": 8520,
      "byteLength": 72,
      "target": 34963
    },
    {
      "buffer": 0,
      "byteOffset": 8592,
      "byteLength": 264,
      "target": 34962,
      "byteStride": 12
    },
    {
      "buffer": 0,
      "byteOffset": 8856,
      "byteLength": 264,
      "target": 34962,
      "byteStride": 12
    },
    {
      "buffer": 0,
      "byteOffset": 9120,
      "byteLength": 176,
      "target": 34962,
      "byteStride": 8
    },
    {
      "buffer": 0,
      "byteOffset": 9296,
      "byteLength": 72,
      "target": 34963
    },
    {
      "buffer": 0,
      "byteOffset": 9368,
      "byteLength": 6732,
      "target": 34962,
      "byteStride": 12
    },
    {
      "buffer": 0,
      "byteOffset": 16100,
      "byteLength": 6732,
      "target": 34962,
      "byteStride": 12
    },
    {
      "buffer": 0,
      "byteOffset": 22832,
      "byteLength": 4488,
      "target": 34962,
      "byteStride": 8
    },
    {
      "buffer": 0,
      "byteOffset": 27320,
      "byteLength": 5760,
      "target": 34963
    }
  ],
  "buffers": [
    {
      "byteLength": 33080,
      "uri": "data:application/octet-stream;base64,"
    }
  ],
  "accessors": [
    {
      "bufferView": 0,
      "componentType": 5126,
      "count": 196,
      "max": [
        0.014999999664723873,
        0.44999998807907104,
        0.014999999664723873
      ],
      "min": [
        -0.014999999664723873,
        -0.44999998807907104,
        -0.014999999664723873
      ],
      "type": "VEC3"
    },
    {
      "bufferView": 1,
      "componentType": 5126,
      "count": 196,
      "max": [
        1,
        1,
        1
      ],
      "min": [
        -1,
        -1,
        -1
      ],
      "type": "VEC3"
    },
    {
      "bufferView": 2,
      "componentType": 5126,
      "count": 196,
      "max": [
        1,
        1
      ],
      "min": [
        0,
        0
      ],
      "type": "VEC2"
    },
    {
      "bufferView": 3,
      "componentType": 5123,
      "count": 384,
      "max": [
        195
      ],
      "min": [
        0
      ],
      "type": "SCALAR"
    },
    {
      "bufferView": 4,
      "componentType": 5126,
      "count": 22,
      "max": [
        0.3464101552963257,
        0.009999999776482582,
        0.4000000059604645
      ],
      "min": [
        -0.3464101552963257,
        -0.009999999776482582,
        -0.20000000298023224
      ],
      "type": "VEC3"
    },
    {
      "bufferView": 5,
      "componentType": 5126,
      "count": 22,
      "max": [
        0.8660253882408142,
        1,
        1
      ],
      "min": [
        -0.8660253882408142,
        -1,
        -0.5
      ],
      "type": "VEC3"
    },
    {
      "bufferView": 6,
      "componentType": 5126,
      "count": 22,
      "max": [
        1,
        1
      ],
      "min": [
        0,
        0
      ],
      "type": "VEC2"
    },
    {
      "bufferView": 7,
      "componentType": 5123,
      "count": 36,
      "max": [
        21
      ],
      "min": [
        0
      ],
      "type": "SCALAR"
    },
    {
      "bufferView": 8,
      "componentType": 5126,
      "count": 22,
      "max": [
        0.3464101552963257,
        0.009999999776482582,
        0.4000000059604645
      ],
      "min": [
        -0.3464101552963257,
        -0.009999999776482582,
        -0.20000000298023224
      ],
      "type": "VEC3"
    },
    {
      "bufferView": 9,
      "componentType": 5126,
      "count": 22,
      "max": [
        0.8660253882408142,
        1,
        1
      ],
      "min": [
        -0.8660253882408142,
        -1,
        -0.5
      ],
      "type": "VEC3"
    },
    {
      "bufferView": 10,
      "componentType": 5126,
      "count": 22,
      "max": [
        1,
        1
      ],
      "min": [
        0,
        0
      ],
      "type": "VEC2"
    },
    {
      "bufferView": 11,
      "componentType": 5123,
      "count": 36,
      "max": [
        21
      ],
      "min": [
        0
      ],
      "type": "SCALAR"
    },
    {
      "bufferView": 12,
      "componentType": 5126,
      "count": 22,
      "max": [
        0.3464101552963257,
        0.009999999776482582,
        0.4000000059604645
      ],
      "min": [
        -0.3464101552963257,
        -0.009999999776482582,
        -0.20000000298023224
      ],
      "type": "VEC3"
    },
    {
      "bufferView": 13,
      "componentType": 5126,
      "count": 22,
      "max": [
        0.8660253882408142,
        1,
        1
      ],
      "min": [
        -0.8660253882408142,
        -1,
        -0.5
      ],
      "type": "VEC3"
    },
    {
      "bufferView": 14,
      "componentType": 5126,
      "count": 22,
      "max": [
        1,
        1
      ],
      "min": [
        0,
        0
      ],
      "type": "VEC2"
    },
    {
      "bufferView": 15,
      "componentType": 5123,
      "count": 36,
      "max": [
        21
      ],
      "min": [
        0
      ],
      "type": "SCALAR"
    },
    {
      "bufferView": 16,
      "componentType": 5126,
      "count": 561,
      "max": [
        0.05000000074505806,
        0.05000000074505806,
        0.05000000074505806
      ],
      "min": [
        -0.05000000074505806,
        -0.05000000074505806,
        -0.05000000074505806
      ],
      "type": "VEC3"
    },
    {
      "bufferView": 17,
      "componentType": 5126,
      "count": 561,
      "max": [
        1,
        1,
        1
      ],
      "min": [
        -1,
        -1,
        -1
      ],
      "type": "VEC3"
    },
    {
      "bufferView": 18,
      "componentType": 5126,
      "count": 561,
      "max": [
        1.015625,
        1
      ],
      "min": [
        -0.015625,
        0
      ],
      "type": "VEC2"
    },
    {
      "bufferView": 19,
      "componentType": 5123,
      "count": 2880,
      "max": [
        560
      ],
      "min": [
        0
      ],
      "type": "SCALAR"
    }
  ],
  "materials": [
    {
      "pbrMetallicRoughness": {
        "baseColorFactor": [
          0.14702726648767014,
          0.14702726648767014,
          0.14702726648767014,
          1
        ],
        "metallicFactor": 0,
        "roughnessFactor": 1
      }
    },
    {
      "pbrMetallicRoughness": {
        "baseColorFactor": [
          1,
          0,
          0,
          1
        ],
        "metallicFactor": 0,
        "roughnessFactor": 1
      }
    },
    {
      "pbrMetallicRoughness": {
        "baseColorFactor": [
          0,
          1,
          0,
          1
        ],
        "metallicFactor": 0,
        "roughnessFactor": 1
      }
    },
    {
      "pbrMetallicRoughness": {
        "baseColorFactor": [
          1,
          1,
          0,
          1
        ],
        "metallicFactor": 0,
        "roughnessFactor": 1
      }
    },
    {
      "pbrMetallicRoughness": {
        "baseColorFactor": [
          0.8069522576650873,
          0.8069522576650873,
          0.8069522576650873,
          1
        ],
        "metallicFactor": 0,
        "roughnessFactor": 1
      }
    }
  ],
  "meshes": [
    {
      "primitives": [
        {
          "mode": 4,
          "attributes": {
            "POSITION": 0,
            "NORMAL": 1,
            "TEXCOORD_0": 2
          },
          "indices": 3,
          "material": 0
        }
      ]
    },
    {
      "primitives": [
        {
          "mode": 4,
          "attributes": {
            "POSITION": 4,
            "NORMAL": 5,
            "TEXCOORD_0": 6
          },
          "indices": 7,
          "material": 1
        }
      ]
    },
    {
      "primitives": [
        {
          "mode": 4,
          "attributes": {
            "POSITION": 8,
            "NORMAL": 9,
            "TEXCOORD_0": 10
          },
          "indices": 11,
          "material": 2
        }
      ]
    },
    {
      "primitives": [
        {
          "mode": 4,
          "attributes": {
            "POSITION": 12,
            "NORMAL": 13,
            "TEXCOORD_0": 14
          },
          "indices": 15,
          "material": 3
        }
      ]
    },
    {
      "primitives": [
        {
          "mode": 4,
          "attributes": {
            "POSITION": 16,
            "NORMAL": 17,
            "TEXCOORD_0": 18
          },
          "indices": 19,
          "material": 4
        }
      ]
    }
  ]
}