{
  "asset": {
    "version": "2.0",
    "generator": "THREE.GLTFExporter r183"
  },
  "scenes": [
    {
      "name": "Scene",
      "nodes": [
        0
      ]
    }
  ],
  "scene": 0,
  "nodes": [
    {
      "name": "scene (34).gltf",
      "children": [
        1,
        18
      ]
    },
    {
      "name": "Air_Balloon_expglb",
      "extras": {
        "name": "Air_Balloon exp.glb"
      },
      "children": [
        2,
        13
      ]
    },
    {
      "matrix": [
        0.15967093408107758,
        0,
        0,
        0,
        0,
        0.15967093408107758,
        0,
        0,
        0,
        0,
        0.15967093408107758,
        0,
        -0.002096831798553467,
        3.6787712574005127,
        0,
        1
      ],
      "name": "gondolaAssembly",
      "extras": {
        "name": "Circle"
      },
      "children": [
        3,
        4,
        5,
        6,
        7,
        8,
        9,
        10,
        11,
        12
      ]
    },
    {
      "matrix": [
        1,
        0,
        0,
        0,
        0,
        1,
        0,
        0,
        0,
        0,
        1,
        0,
        -3.8,
        -5.5,
        4,
        1
      ],
      "name": "gondonaConnector",
      "extras": {
        "name": "gondonaConnector"
      },
      "mesh": 0
    },
    {
      "matrix": [
        1,
        0,
        0,
        0,
        0,
        1,
        0,
        0,
        0,
        0,
        1,
        0,
        3.8,
        -5.5,
        4,
        1
      ],
      "name": "gondonaConnector_1",
      "extras": {
        "name": "gondonaConnector"
      },
      "mesh": 0
    },
    {
      "matrix": [
        1,
        0,
        0,
        0,
        0,
        1,
        0,
        0,
        0,
        0,
        1,
        0,
        -3.8,
        -5.5,
        -4,
        1
      ],
      "name": "gondonaConnector_2",
      "extras": {
        "name": "gondonaConnector"
      },
      "mesh": 0
    },
    {
      "matrix": [
        1,
        0,
        0,
        0,
        0,
        1,
        0,
        0,
        0,
        0,
        1,
        0,
        3.8,
        -5.5,
        -4,
        1
      ],
      "name": "gondonaConnector_3",
      "extras": {
        "name": "gondonaConnector"
      },
      "mesh": 0
    },
    {
      "matrix": [
        1,
        0,
        0,
        0,
        0,
        1,
        0,
        0,
        0,
        0,
        1,
        0,
        3.8,
        0,
        -4,
        1
      ],
      "name": "Sphere",
      "extras": {
        "name": "Sphere"
      },
      "mesh": 1
    },
    {
      "matrix": [
        1,
        0,
        0,
        0,
        0,
        1,
        0,
        0,
        0,
        0,
        1,
        0,
        3.8,
        0,
        4.006,
        1
      ],
      "name": "Sphere_1",
      "extras": {
        "name": "Sphere"
      },
      "mesh": 1
    },
    {
      "matrix": [
        1,
        0,
        0,
        0,
        0,
        1,
        0,
        0,
        0,
        0,
        1,
        0,
        -3.794,
        0,
        4.006,
        1
      ],
      "name": "Sphere_2",
      "extras": {
        "name": "Sphere"
      },
      "mesh": 1
    },
    {
      "matrix": [
        1,
        0,
        0,
        0,
        0,
        1,
        0,
        0,
        0,
        0,
        1,
        0,
        -3.794,
        0,
        -4,
        1
      ],
      "name": "Sphere_3",
      "extras": {
        "name": "Sphere"
      },
      "mesh": 1
    },
    {
      "name": "burnerAssembly",
      "extras": {
        "name": "burnerAssembly"
      },
      "mesh": 2
    },
    {
      "name": "basket",
      "extras": {
        "name": "basket"
      },
      "mesh": 3
    },
    {
      "matrix": [
        12.732240676879883,
        0,
        0,
        0,
        0,
        12.732240676879883,
        0,
        0,
        0,
        0,
        12.732240676879883,
        0,
        0,
        0,
        0,
        1
      ],
      "name": "Sphere_4",
      "extras": {
        "name": "Sphere"
      },
      "children": [
        14,
        15,
        16,
        17
      ]
    },
    {
      "name": "envelopeMainBand",
      "extras": {
        "name": "envelopeMainBand"
      },
      "mesh": 4
    },
    {
      "name": "envelopeBottomBand",
      "extras": {
        "name": "envelopeBottomBand"
      },
      "mesh": 5
    },
    {
      "name": "envelopeTopBand",
      "extras": {
        "name": "envelopeTopBand"
      },
      "mesh": 6
    },
    {
      "name": "envelopeMidBand",
      "extras": {
        "name": "envelopeMidBand"
      },
      "mesh": 7
    },
    {
      "matrix": [
        1,
        0,
        0,
        0,
        0,
        -2.220446049250313e-16,
        -1,
        0,
        0,
        1,
        -2.220446049250313e-16,
        0,
        -14.628131110398531,
        0,
        0,
        1
      ],
      "name": "20306_Animal_Trainer_w_hoop_over_head_V1obj",
      "extras": {
        "name": "20306_Animal_Trainer_w_hoop_over_head_V1.obj"
      }
    }
  ],
  "bufferViews": [
    {
      "buffer": 0,
      "byteOffset": 0,
      "byteLength": 2352,
      "target": 34962,
      "byteStride": 12
    },
    {
      "buffer": 0,
      "byteOffset": 2352,
      "byteLength": 2352,
      "target": 34962,
      "byteStride": 12
    },
    {
      "buffer": 0,
      "byteOffset": 4704,
      "byteLength": 1568,
      "target": 34962,
      "byteStride": 8
    },
    {
      "buffer": 0,
      "byteOffset": 6272,
      "byteLength": 768,
      "target": 34963
    },
    {
      "buffer": 0,
      "byteOffset": 7040,
      "byteLength": 6732,
      "target": 34962,
      "byteStride": 12
    },
    {
      "buffer": 0,
      "byteOffset": 13772,
      "byteLength": 6732,
      "target": 34962,
      "byteStride": 12
    },
    {
      "buffer": 0,
      "byteOffset": 20504,
      "byteLength": 4488,
      "target": 34962,
      "byteStride": 8
    },
    {
      "buffer": 0,
      "byteOffset": 24992,
      "byteLength": 5760,
      "target": 34963
    },
    {
      "buffer": 0,
      "byteOffset": 30752,
      "byteLength": 45312,
      "target": 34962,
      "byteStride": 12
    },
    {
      "buffer": 0,
      "byteOffset": 76064,
      "byteLength": 45312,
      "target": 34962,
      "byteStride": 12
    },
    {
      "buffer": 0,
      "byteOffset": 121376,
      "byteLength": 12768,
      "target": 34963
    },
    {
      "buffer": 0,
      "byteOffset": 134144,
      "byteLength": 24792,
      "target": 34962,
      "byteStride": 12
    },
    {
      "buffer": 0,
      "byteOffset": 158936,
      "byteLength": 24792,
      "target": 34962,
      "byteStride": 12
    },
    {
      "buffer": 0,
      "byteOffset": 183728,
      "byteLength": 24192,
      "target": 34963
    },
    {
      "buffer": 0,
      "byteOffset": 207920,
      "byteLength": 2880,
      "target": 34962,
      "byteStride": 12
    },
    {
      "buffer": 0,
      "byteOffset": 210800,
      "byteLength": 2880,
      "target": 34962,
      "byteStride": 12
    },
    {
      "buffer": 0,
      "byteOffset": 213680,
      "byteLength": 1920,
      "target": 34962,
      "byteStride": 8
    },
    {
      "buffer": 0,
      "byteOffset": 215600,
      "byteLength": 1920,
      "target": 34962,
      "byteStride": 8
    },
    {
      "buffer": 0,
      "byteOffset": 217520,
      "byteLength": 1632,
      "target": 34963
    },
    {
      "buffer": 0,
      "byteOffset": 219152,
      "byteLength": 3420,
      "target": 34962,
      "byteStride": 12
    },
    {
      "buffer": 0,
      "byteOffset": 222572,
      "byteLength": 3420,
      "target": 34962,
      "byteStride": 12
    },
    {
      "buffer": 0,
      "byteOffset": 225992,
      "byteLength": 2280,
      "target": 34962,
      "byteStride": 8
    },
    {
      "buffer": 0,
      "byteOffset": 228272,
      "byteLength": 2280,
      "target": 34962,
      "byteStride": 8
    },
    {
      "buffer": 0,
      "byteOffset": 230552,
      "byteLength": 1584,
      "target": 34963
    },
    {
      "buffer": 0,
      "byteOffset": 232136,
      "byteLength": 3456,
      "target": 34962,
      "byteStride": 12
    },
    {
      "buffer": 0,
      "byteOffset": 235592,
      "byteLength": 3456,
      "target": 34962,
      "byteStride": 12
    },
    {
      "buffer": 0,
      "byteOffset": 239048,
      "byteLength": 2304,
      "target": 34962,
      "byteStride": 8
    },
    {
      "buffer": 0,
      "byteOffset": 241352,
      "byteLength": 2304,
      "target": 34962,
      "byteStride": 8
    },
    {
      "buffer": 0,
      "byteOffset": 243656,
      "byteLength": 1440,
      "target": 34963
    },
    {
      "buffer": 0,
      "byteOffset": 245096,
      "byteLength": 3744,
      "target": 34962,
      "byteStride": 12
    },
    {
      "buffer": 0,
      "byteOffset": 248840,
      "byteLength": 3744,
      "target": 34962,
      "byteStride": 12
    },
    {
      "buffer": 0,
      "byteOffset": 252584,
      "byteLength": 2496,
      "target": 34962,
      "byteStride": 8
    },
    {
      "buffer": 0,
      "byteOffset": 255080,
      "byteLength": 2496,
      "target": 34962,
      "byteStride": 8
    },
    {
      "buffer": 0,
      "byteOffset": 257576,
      "byteLength": 1344,
      "target": 34963
    }
  ],
  "buffers": [
    {
      "byteLength": 258920,
      "uri": "data:application/octet-stream;base64,"
    }
  ],
  "accessors": [
    {
      "bufferView": 0,
      "componentType": 5126,
      "count": 196,
      "max": [
        0.30000001192092896,
        5.5,
        0.30000001192092896
      ],
      "min": [
        -0.30000001192092896,
        -5.5,
        -0.30000001192092896
      ],
      "type": "VEC3"
    },
    {
      "bufferView": 1,
      "componentType": 5126,
      "count": 196,
      "max": [
        1,
        1,
        1
      ],
      "min": [
        -1,
        -1,
        -1
      ],
      "type": "VEC3"
    },
    {
      "bufferView": 2,
      "componentType": 5126,
      "count": 196,
      "max": [
        1,
        1
      ],
      "min": [
        0,
        0
      ],
      "type": "VEC2"
    },
    {
      "bufferView": 3,
      "componentType": 5123,
      "count": 384,
      "max": [
        195
      ],
      "min": [
        0
      ],
      "type": "SCALAR"
    },
    {
      "bufferView": 4,
      "componentType": 5126,
      "count": 561,
      "max": [
        0.800000011920929,
        0.800000011920929,
        0.800000011920929
      ],
      "min": [
        -0.800000011920929,
        -0.800000011920929,
        -0.800000011920929
      ],
      "type": "VEC3"
    },
    {
      "bufferView": 5,
      "componentType": 5126,
      "count": 561,
      "max": [
        1,
        1,
        1
      ],
      "min": [
        -1,
        -1,
        -1
      ],
      "type": "VEC3"
    },
    {
      "bufferView": 6,
      "componentType": 5126,
      "count": 561,
      "max": [
        1.015625,
        1
      ],
      "min": [
        -0.015625,
        0
      ],
      "type": "VEC2"
    },
    {
      "bufferView": 7,
      "componentType": 5123,
      "count": 2880,
      "max": [
        560
      ],
      "min": [
        0
      ],
      "type": "SCALAR"
    },
    {
      "bufferView": 8,
      "componentType": 5126,
      "count": 3776,
      "max": [
        4.726792812347412,
        4.427640914916992,
        4.538944721221924
      ],
      "min": [
        -4.778312683105469,
        -1.0672645568847656,
        -4.538944721221924
      ],
      "type": "VEC3"
    },
    {
      "bufferView": 9,
      "componentType": 5126,
      "count": 3776,
      "max": [
        1,
        1,
        1
      ],
      "min": [
        -1,
        -1,
        -1
      ],
      "type": "VEC3"
    },
    {
      "bufferView": 10,
      "componentType": 5123,
      "count": 6384,
      "max": [
        3775
      ],
      "min": [
        0
      ],
      "type": "SCALAR"
    },
    {
      "bufferView": 11,
      "componentType": 5126,
      "count": 2066,
      "max": [
        4.679386615753174,
        -10.757061004638672,
        4.670774936676025
      ],
      "min": [
        -4.652657985687256,
        -20.336658477783203,
        -4.661269664764404
      ],
      "type": "VEC3"
    },
    {
      "bufferView": 12,
      "componentType": 5126,
      "count": 2066,
      "max": [
        1,
        0.9835014939308167,
        1
      ],
      "min": [
        -1,
        -1,
        -1
      ],
      "type": "VEC3"
    },
    {
      "bufferView": 13,
      "componentType": 5123,
      "count": 12096,
      "max": [
        2065
      ],
      "min": [
        0
      ],
      "type": "SCALAR"
    },
    {
      "bufferView": 14,
      "componentType": 5126,
      "count": 240,
      "max": [
        0.880506157875061,
        2.4126555919647217,
        0.8805493116378784
      ],
      "min": [
        -0.8805025815963745,
        1.411363959312439,
        -0.8804593682289124
      ],
      "type": "VEC3"
    },
    {
      "bufferView": 15,
      "componentType": 5126,
      "count": 240,
      "max": [
        0.9999788999557495,
        0.7400887608528137,
        0.9999788999557495
      ],
      "min": [
        -0.9999788999557495,
        -0.4045983552932739,
        -0.9999788999557495
      ],
      "type": "VEC3"
    },
    {
      "bufferView": 16,
      "componentType": 5126,
      "count": 240,
      "max": [
        3.3452236652374268,
        4.158346652984619
      ],
      "min": [
        -2.3452389240264893,
        -0.9603302478790283
      ],
      "type": "VEC2"
    },
    {
      "bufferView": 17,
      "componentType": 5126,
      "count": 240,
      "max": [
        0.5862093567848206,
        0.5092800855636597
      ],
      "min": [
        0.41376906633377075,
        0.39992523193359375
      ],
      "type": "VEC2"
    },
    {
      "bufferView": 18,
      "componentType": 5123,
      "count": 816,
      "max": [
        239
      ],
      "min": [
        0
      ],
      "type": "SCALAR"
    },
    {
      "bufferView": 19,
      "componentType": 5126,
      "count": 285,
      "max": [
        0.6226124167442322,
        2.6381008625030518,
        0.6226556897163391
      ],
      "min": [
        -0.6226088404655457,
        0.33612722158432007,
        -0.6225655674934387
      ],
      "type": "VEC3"
    },
    {
      "bufferView": 20,
      "componentType": 5126,
      "count": 285,
      "max": [
        0.9390054941177368,
        1,
        0.9390378594398499
      ],
      "min": [
        -0.939005434513092,
        -0.6101215481758118,
        -0.9389732480049133
      ],
      "type": "VEC3"
    },
    {
      "bufferView": 21,
      "componentType": 5126,
      "count": 285,
      "max": [
        2.51189923286438,
        2.3144211769104004
      ],
      "min": [
        -1.5119149684906006,
        -4.682454586029053
      ],
      "type": "VEC2"
    },
    {
      "bufferView": 22,
      "componentType": 5126,
      "count": 285,
      "max": [
        0.5609567761421204,
        0.4698866605758667
      ],
      "min": [
        0.43902161717414856,
        0.3204062581062317
      ],
      "type": "VEC2"
    },
    {
      "bufferView": 23,
      "componentType": 5123,
      "count": 792,
      "max": [
        284
      ],
      "min": [
        0
      ],
      "type": "SCALAR"
    },
    {
      "bufferView": 24,
      "componentType": 5126,
      "count": 288,
      "max": [
        0.7625409960746765,
        2.6118738651275635,
        0.7625840902328491
      ],
      "min": [
        -0.76253741979599,
        0.6301831007003784,
        -0.7624942064285278
      ],
      "type": "VEC3"
    },
    {
      "bufferView": 25,
      "componentType": 5126,
      "count": 288,
      "max": [
        0.9247340559959412,
        0.9743399620056152,
        0.9247484803199768
      ],
      "min": [
        -0.9247340559959412,
        -0.6101215481758118,
        -0.9247340559959412
      ],
      "type": "VEC3"
    },
    {
      "bufferView": 26,
      "componentType": 5126,
      "count": 288,
      "max": [
        2.9640462398529053,
        5.541694641113281
      ],
      "min": [
        -1.9640614986419678,
        -3.0816688537597656
      ],
      "type": "VEC2"
    },
    {
      "bufferView": 27,
      "componentType": 5126,
      "count": 288,
      "max": [
        0.5746583938598633,
        0.5388337969779968
      ],
      "min": [
        0.425320029258728,
        0.35460519790649414
      ],
      "type": "VEC2"
    },
    {
      "bufferView": 28,
      "componentType": 5123,
      "count": 720,
      "max": [
        287
      ],
      "min": [
        0
      ],
      "type": "SCALAR"
    },
    {
      "bufferView": 29,
      "componentType": 5126,
      "count": 312,
      "max": [
        0.8505037426948547,
        2.534978151321411,
        0.8505469560623169
      ],
      "min": [
        -0.8505001664161682,
        0.8276216983795166,
        -0.8504568934440613
      ],
      "type": "VEC3"
    },
    {
      "bufferView": 30,
      "componentType": 5126,
      "count": 312,
      "max": [
        0.9733082056045532,
        0.8858903050422668,
        0.9733082056045532
      ],
      "min": [
        -0.9733082056045532,
        -0.6101215481758118,
        -0.9733082056045532
      ],
      "type": "VEC3"
    },
    {
      "bufferView": 31,
      "componentType": 5126,
      "count": 312,
      "max": [
        3.2482779026031494,
        5.541694641113281
      ],
      "min": [
        -2.2482924461364746,
        -4.682454586029053
      ],
      "type": "VEC2"
    },
    {
      "bufferView": 32,
      "componentType": 5126,
      "count": 312,
      "max": [
        0.5832715630531311,
        0.5388337969779968
      ],
      "min": [
        0.4167068600654602,
        0.3204062581062317
      ],
      "type": "VEC2"
    },
    {
      "bufferView": 33,
      "componentType": 5123,
      "count": 672,
      "max": [
        311
      ],
      "min": [
        0
      ],
      "type": "SCALAR"
    }
  ],
  "materials": [
    {
      "pbrMetallicRoughness": {
        "baseColorFactor": [
          0.7304607400847158,
          0.7304607400847158,
          0.7304607400847158,
          1
        ],
        "metallicFactor": 0,
        "roughnessFactor": 1
      }
    },
    {
      "pbrMetallicRoughness": {
        "metallicFactor": 0,
        "roughnessFactor": 1
      }
    },
    {
      "pbrMetallicRoughness": {
        "baseColorFactor": [
          0.6375968739867731,
          0.6375968739867731,
          0.6375968739867731,
          1
        ],
        "metallicFactor": 1,
        "roughnessFactor": 0.5
      }
    },
    {
      "pbrMetallicRoughness": {
        "baseColorFactor": [
          0.9386857284565036,
          0.8631572134510892,
          0.6172065624120635,
          1
        ],
        "metallicFactor": 1,
        "roughnessFactor": 1
      },
      "doubleSided": true
    },
    {
      "pbrMetallicRoughness": {
        "baseColorFactor": [
          0.8713671191959567,
          0.5209955731953768,
          0.03954623527052923,
          1
        ],
        "metallicFactor": 0,
        "roughnessFactor": 0.8
      },
      "name": "Yellow"
    },
    {
      "pbrMetallicRoughness": {
        "baseColorFactor": [
          0.03954623527052923,
          0.03954623527052923,
          0.03954623527052923,
          1
        ],
        "metallicFactor": 0,
        "roughnessFactor": 0.8
      }
    },
    {
      "pbrMetallicRoughness": {
        "baseColorFactor": [
          0.4396571738310091,
          0.018500220124016652,
          0.018500220124016652,
          1
        ],
        "metallicFactor": 0,
        "roughnessFactor": 0.8
      },
      "name": "Red"
    },
    {
      "pbrMetallicRoughness": {
        "baseColorFactor": [
          0.3231432091022285,
          0.061246054224174035,
          0.004391442035325718,
          1
        ],
        "metallicFactor": 0,
        "roughnessFactor": 0.8
      },
      "name": "Orange"
    }
  ],
  "meshes": [
    {
      "primitives": [
        {
          "mode": 4,
          "attributes": {
            "POSITION": 0,
            "NORMAL": 1,
            "TEXCOORD_0": 2
          },
          "indices": 3,
          "material": 0
        }
      ]
    },
    {
      "primitives": [
        {
          "mode": 4,
          "attributes": {
            "POSITION": 4,
            "NORMAL": 5,
            "TEXCOORD_0": 6
          },
          "indices": 7,
          "material": 1
        }
      ]
    },
    {
      "primitives": [
        {
          "mode": 4,
          "attributes": {
            "POSITION": 8,
            "NORMAL": 9
          },
          "indices": 10,
          "material": 2
        }
      ]
    },
    {
      "primitives": [
        {
          "mode": 4,
          "attributes": {
            "POSITION": 11,
            "NORMAL": 12
          },
          "indices": 13,
          "material": 3
        }
      ]
    },
    {
      "primitives": [
        {
          "mode": 4,
          "attributes": {
            "POSITION": 14,
            "NORMAL": 15,
            "TEXCOORD_0": 16,
            "TEXCOORD_1": 17
          },
          "indices": 18,
          "material": 4
        }
      ]
    },
    {
      "primitives": [
        {
          "mode": 4,
          "attributes": {
            "POSITION": 19,
            "NORMAL": 20,
            "TEXCOORD_0": 21,
            "TEXCOORD_1": 22
          },
          "indices": 23,
          "material": 5
        }
      ]
    },
    {
      "primitives": [
        {
          "mode": 4,
          "attributes": {
            "POSITION": 24,
            "NORMAL": 25,
            "TEXCOORD_0": 26,
            "TEXCOORD_1": 27
          },
          "indices": 28,
          "material": 6
        }
      ]
    },
    {
      "primitives": [
        {
          "mode": 4,
          "attributes": {
            "POSITION": 29,
            "NORMAL": 30,
            "TEXCOORD_0": 31,
            "TEXCOORD_1": 32
          },
          "indices": 33,
          "material": 7
        }
      ]
    }
  ]
}