{
  "asset": {
    "version": "2.0",
    "generator": "THREE.GLTFExporter r183"
  },
  "scenes": [
    {
      "name": "Scene",
      "nodes": [
        0
      ]
    }
  ],
  "scene": 0,
  "nodes": [
    {
      "matrix": [
        1,
        0,
        0,
        0,
        0,
        1,
        0,
        0,
        0,
        0,
        1,
        0,
        0,
        0,
        0.1620630986461371,
        1
      ],
      "name": "Air_Balloon exp.glb",
      "children": [
        1,
        5
      ]
    },
    {
      "matrix": [
        0.15967093408107758,
        0,
        0,
        0,
        0,
        0.15967093408107758,
        0,
        0,
        0,
        0,
        0.15967093408107758,
        0,
        -0.002096831798553467,
        3.6787712574005127,
        0,
        1
      ],
      "name": "Circle",
      "extras": {
        "name": "Circle"
      },
      "children": [
        2,
        3,
        4
      ]
    },
    {
      "name": "Circle_1",
      "mesh": 0
    },
    {
      "name": "Circle_2",
      "mesh": 1
    },
    {
      "name": "basket",
      "mesh": 2
    },
    {
      "matrix": [
        12.732240676879883,
        0,
        0,
        0,
        0,
        12.732240676879883,
        0,
        0,
        0,
        0,
        12.732240676879883,
        0,
        0,
        0,
        0,
        1
      ],
      "name": "Sphere",
      "extras": {
        "name": "Sphere"
      },
      "children": [
        6,
        7,
        8,
        9
      ]
    },
    {
      "name": "Sphere002",
      "mesh": 3
    },
    {
      "name": "Sphere002_1",
      "mesh": 4
    },
    {
      "name": "Sphere002_2",
      "mesh": 5
    },
    {
      "name": "Sphere002_3",
      "mesh": 6
    }
  ],
  "bufferViews": [
    {
      "buffer": 0,
      "byteOffset": 0,
      "byteLength": 45312,
      "target": 34962,
      "byteStride": 12
    },
    {
      "buffer": 0,
      "byteOffset": 45312,
      "byteLength": 45312,
      "target": 34962,
      "byteStride": 12
    },
    {
      "buffer": 0,
      "byteOffset": 90624,
      "byteLength": 12768,
      "target": 34963
    },
    {
      "buffer": 0,
      "byteOffset": 103392,
      "byteLength": 39936,
      "target": 34962,
      "byteStride": 12
    },
    {
      "buffer": 0,
      "byteOffset": 143328,
      "byteLength": 39936,
      "target": 34962,
      "byteStride": 12
    },
    {
      "buffer": 0,
      "byteOffset": 183264,
      "byteLength": 12192,
      "target": 34963
    },
    {
      "buffer": 0,
      "byteOffset": 195456,
      "byteLength": 24792,
      "target": 34962,
      "byteStride": 12
    },
    {
      "buffer": 0,
      "byteOffset": 220248,
      "byteLength": 24792,
      "target": 34962,
      "byteStride": 12
    },
    {
      "buffer": 0,
      "byteOffset": 245040,
      "byteLength": 24192,
      "target": 34963
    },
    {
      "buffer": 0,
      "byteOffset": 269232,
      "byteLength": 2880,
      "target": 34962,
      "byteStride": 12
    },
    {
      "buffer": 0,
      "byteOffset": 272112,
      "byteLength": 2880,
      "target": 34962,
      "byteStride": 12
    },
    {
      "buffer": 0,
      "byteOffset": 274992,
      "byteLength": 1920,
      "target": 34962,
      "byteStride": 8
    },
    {
      "buffer": 0,
      "byteOffset": 276912,
      "byteLength": 1920,
      "target": 34962,
      "byteStride": 8
    },
    {
      "buffer": 0,
      "byteOffset": 278832,
      "byteLength": 1632,
      "target": 34963
    },
    {
      "buffer": 0,
      "byteOffset": 280464,
      "byteLength": 3420,
      "target": 34962,
      "byteStride": 12
    },
    {
      "buffer": 0,
      "byteOffset": 283884,
      "byteLength": 3420,
      "target": 34962,
      "byteStride": 12
    },
    {
      "buffer": 0,
      "byteOffset": 287304,
      "byteLength": 2280,
      "target": 34962,
      "byteStride": 8
    },
    {
      "buffer": 0,
      "byteOffset": 289584,
      "byteLength": 2280,
      "target": 34962,
      "byteStride": 8
    },
    {
      "buffer": 0,
      "byteOffset": 291864,
      "byteLength": 1584,
      "target": 34963
    },
    {
      "buffer": 0,
      "byteOffset": 293448,
      "byteLength": 3456,
      "target": 34962,
      "byteStride": 12
    },
    {
      "buffer": 0,
      "byteOffset": 296904,
      "byteLength": 3456,
      "target": 34962,
      "byteStride": 12
    },
    {
      "buffer": 0,
      "byteOffset": 300360,
      "byteLength": 2304,
      "target": 34962,
      "byteStride": 8
    },
    {
      "buffer": 0,
      "byteOffset": 302664,
      "byteLength": 2304,
      "target": 34962,
      "byteStride": 8
    },
    {
      "buffer": 0,
      "byteOffset": 304968,
      "byteLength": 1440,
      "target": 34963
    },
    {
      "buffer": 0,
      "byteOffset": 306408,
      "byteLength": 3744,
      "target": 34962,
      "byteStride": 12
    },
    {
      "buffer": 0,
      "byteOffset": 310152,
      "byteLength": 3744,
      "target": 34962,
      "byteStride": 12
    },
    {
      "buffer": 0,
      "byteOffset": 313896,
      "byteLength": 2496,
      "target": 34962,
      "byteStride": 8
    },
    {
      "buffer": 0,
      "byteOffset": 316392,
      "byteLength": 2496,
      "target": 34962,
      "byteStride": 8
    },
    {
      "buffer": 0,
      "byteOffset": 318888,
      "byteLength": 1344,
      "target": 34963
    }
  ],
  "buffers": [
    {
      "byteLength": 320232,
      "uri": "data:application/octet-stream;base64,"
    }
  ],
  "accessors": [
    {
      "bufferView": 0,
      "componentType": 5126,
      "count": 3776,
      "max": [
        4.726792812347412,
        4.427640914916992,
        4.538944721221924
      ],
      "min": [
        -4.778312683105469,
        -1.0672645568847656,
        -4.538944721221924
      ],
      "type": "VEC3"
    },
    {
      "bufferView": 1,
      "componentType": 5126,
      "count": 3776,
      "max": [
        1,
        1,
        1
      ],
      "min": [
        -1,
        -1,
        -1
      ],
      "type": "VEC3"
    },
    {
      "bufferView": 2,
      "componentType": 5123,
      "count": 6384,
      "max": [
        3775
      ],
      "min": [
        0
      ],
      "type": "SCALAR"
    },
    {
      "bufferView": 3,
      "componentType": 5126,
      "count": 3328,
      "max": [
        4.757961750030518,
        0.04442644119262695,
        4.913424015045166
      ],
      "min": [
        -4.7316975593566895,
        -10.88254451751709,
        -4.913424015045166
      ],
      "type": "VEC3"
    },
    {
      "bufferView": 4,
      "componentType": 5126,
      "count": 3328,
      "max": [
        0.9951865673065186,
        1,
        0.9951865673065186
      ],
      "min": [
        -0.9951865673065186,
        -1,
        -0.9951865673065186
      ],
      "type": "VEC3"
    },
    {
      "bufferView": 5,
      "componentType": 5123,
      "count": 6096,
      "max": [
        3327
      ],
      "min": [
        0
      ],
      "type": "SCALAR"
    },
    {
      "bufferView": 6,
      "componentType": 5126,
      "count": 2066,
      "max": [
        4.679386615753174,
        -10.757061004638672,
        4.670774936676025
      ],
      "min": [
        -4.652657985687256,
        -20.336658477783203,
        -4.661269664764404
      ],
      "type": "VEC3"
    },
    {
      "bufferView": 7,
      "componentType": 5126,
      "count": 2066,
      "max": [
        1,
        0.9835014939308167,
        1
      ],
      "min": [
        -1,
        -1,
        -1
      ],
      "type": "VEC3"
    },
    {
      "bufferView": 8,
      "componentType": 5123,
      "count": 12096,
      "max": [
        2065
      ],
      "min": [
        0
      ],
      "type": "SCALAR"
    },
    {
      "bufferView": 9,
      "componentType": 5126,
      "count": 240,
      "max": [
        0.880506157875061,
        2.4126555919647217,
        0.8805493116378784
      ],
      "min": [
        -0.8805025815963745,
        1.411363959312439,
        -0.8804593682289124
      ],
      "type": "VEC3"
    },
    {
      "bufferView": 10,
      "componentType": 5126,
      "count": 240,
      "max": [
        0.9999788999557495,
        0.7400887608528137,
        0.9999788999557495
      ],
      "min": [
        -0.9999788999557495,
        -0.4045983552932739,
        -0.9999788999557495
      ],
      "type": "VEC3"
    },
    {
      "bufferView": 11,
      "componentType": 5126,
      "count": 240,
      "max": [
        3.3452236652374268,
        4.158346652984619
      ],
      "min": [
        -2.3452389240264893,
        -0.9603302478790283
      ],
      "type": "VEC2"
    },
    {
      "bufferView": 12,
      "componentType": 5126,
      "count": 240,
      "max": [
        0.5862093567848206,
        0.5092800855636597
      ],
      "min": [
        0.41376906633377075,
        0.39992523193359375
      ],
      "type": "VEC2"
    },
    {
      "bufferView": 13,
      "componentType": 5123,
      "count": 816,
      "max": [
        239
      ],
      "min": [
        0
      ],
      "type": "SCALAR"
    },
    {
      "bufferView": 14,
      "componentType": 5126,
      "count": 285,
      "max": [
        0.6226124167442322,
        2.6381008625030518,
        0.6226556897163391
      ],
      "min": [
        -0.6226088404655457,
        0.33612722158432007,
        -0.6225655674934387
      ],
      "type": "VEC3"
    },
    {
      "bufferView": 15,
      "componentType": 5126,
      "count": 285,
      "max": [
        0.9390054941177368,
        1,
        0.9390378594398499
      ],
      "min": [
        -0.939005434513092,
        -0.6101215481758118,
        -0.9389732480049133
      ],
      "type": "VEC3"
    },
    {
      "bufferView": 16,
      "componentType": 5126,
      "count": 285,
      "max": [
        2.51189923286438,
        2.3144211769104004
      ],
      "min": [
        -1.5119149684906006,
        -4.682454586029053
      ],
      "type": "VEC2"
    },
    {
      "bufferView": 17,
      "componentType": 5126,
      "count": 285,
      "max": [
        0.5609567761421204,
        0.4698866605758667
      ],
      "min": [
        0.43902161717414856,
        0.3204062581062317
      ],
      "type": "VEC2"
    },
    {
      "bufferView": 18,
      "componentType": 5123,
      "count": 792,
      "max": [
        284
      ],
      "min": [
        0
      ],
      "type": "SCALAR"
    },
    {
      "bufferView": 19,
      "componentType": 5126,
      "count": 288,
      "max": [
        0.7625409960746765,
        2.6118738651275635,
        0.7625840902328491
      ],
      "min": [
        -0.76253741979599,
        0.6301831007003784,
        -0.7624942064285278
      ],
      "type": "VEC3"
    },
    {
      "bufferView": 20,
      "componentType": 5126,
      "count": 288,
      "max": [
        0.9247340559959412,
        0.9743399620056152,
        0.9247484803199768
      ],
      "min": [
        -0.9247340559959412,
        -0.6101215481758118,
        -0.9247340559959412
      ],
      "type": "VEC3"
    },
    {
      "bufferView": 21,
      "componentType": 5126,
      "count": 288,
      "max": [
        2.9640462398529053,
        5.541694641113281
      ],
      "min": [
        -1.9640614986419678,
        -3.0816688537597656
      ],
      "type": "VEC2"
    },
    {
      "bufferView": 22,
      "componentType": 5126,
      "count": 288,
      "max": [
        0.5746583938598633,
        0.5388337969779968
      ],
      "min": [
        0.425320029258728,
        0.35460519790649414
      ],
      "type": "VEC2"
    },
    {
      "bufferView": 23,
      "componentType": 5123,
      "count": 720,
      "max": [
        287
      ],
      "min": [
        0
      ],
      "type": "SCALAR"
    },
    {
      "bufferView": 24,
      "componentType": 5126,
      "count": 312,
      "max": [
        0.8505037426948547,
        2.534978151321411,
        0.8505469560623169
      ],
      "min": [
        -0.8505001664161682,
        0.8276216983795166,
        -0.8504568934440613
      ],
      "type": "VEC3"
    },
    {
      "bufferView": 25,
      "componentType": 5126,
      "count": 312,
      "max": [
        0.9733082056045532,
        0.8858903050422668,
        0.9733082056045532
      ],
      "min": [
        -0.9733082056045532,
        -0.6101215481758118,
        -0.9733082056045532
      ],
      "type": "VEC3"
    },
    {
      "bufferView": 26,
      "componentType": 5126,
      "count": 312,
      "max": [
        3.2482779026031494,
        5.541694641113281
      ],
      "min": [
        -2.2482924461364746,
        -4.682454586029053
      ],
      "type": "VEC2"
    },
    {
      "bufferView": 27,
      "componentType": 5126,
      "count": 312,
      "max": [
        0.5832715630531311,
        0.5388337969779968
      ],
      "min": [
        0.4167068600654602,
        0.3204062581062317
      ],
      "type": "VEC2"
    },
    {
      "bufferView": 28,
      "componentType": 5123,
      "count": 672,
      "max": [
        311
      ],
      "min": [
        0
      ],
      "type": "SCALAR"
    }
  ],
  "materials": [
    {
      "pbrMetallicRoughness": {
        "baseColorFactor": [
          0.6375968739867731,
          0.6375968739867731,
          0.6375968739867731,
          1
        ],
        "metallicFactor": 1,
        "roughnessFactor": 0.5
      },
      "doubleSided": true,
      "name": "White"
    },
    {
      "pbrMetallicRoughness": {
        "baseColorFactor": [
          0.14126329113044458,
          0.14126329113044458,
          0.14126329113044458,
          1
        ],
        "metallicFactor": 0,
        "roughnessFactor": 0.8
      },
      "doubleSided": true,
      "name": "Black"
    },
    {
      "pbrMetallicRoughness": {
        "baseColorFactor": [
          0.3712376804636741,
          0.3277780980458375,
          0.1912016827303171,
          1
        ],
        "metallicFactor": 1,
        "roughnessFactor": 1
      },
      "doubleSided": true,
      "name": "Tan"
    },
    {
      "pbrMetallicRoughness": {
        "baseColorFactor": [
          0.775822218312646,
          0.31854677811435356,
          0.07618538147321911,
          1
        ],
        "metallicFactor": 0,
        "roughnessFactor": 0.8
      },
      "doubleSided": true,
      "name": "Yellow"
    },
    {
      "pbrMetallicRoughness": {
        "baseColorFactor": [
          0.04518620437910499,
          0.6104955708001716,
          0.6795424696265424,
          1
        ],
        "metallicFactor": 0,
        "roughnessFactor": 0.8
      },
      "doubleSided": true,
      "name": "Red"
    },
    {
      "pbrMetallicRoughness": {
        "baseColorFactor": [
          0.035601314869097636,
          0.4232676699760063,
          0.031896033067374104,
          1
        ],
        "metallicFactor": 0,
        "roughnessFactor": 0.8
      },
      "doubleSided": true,
      "name": "Orange"
    }
  ],
  "meshes": [
    {
      "primitives": [
        {
          "mode": 4,
          "attributes": {
            "POSITION": 0,
            "NORMAL": 1
          },
          "indices": 2,
          "material": 0
        }
      ]
    },
    {
      "primitives": [
        {
          "mode": 4,
          "attributes": {
            "POSITION": 3,
            "NORMAL": 4
          },
          "indices": 5,
          "material": 1
        }
      ]
    },
    {
      "primitives": [
        {
          "mode": 4,
          "attributes": {
            "POSITION": 6,
            "NORMAL": 7
          },
          "indices": 8,
          "material": 2
        }
      ]
    },
    {
      "primitives": [
        {
          "mode": 4,
          "attributes": {
            "POSITION": 9,
            "NORMAL": 10,
            "TEXCOORD_0": 11,
            "TEXCOORD_1": 12
          },
          "indices": 13,
          "material": 3
        }
      ]
    },
    {
      "primitives": [
        {
          "mode": 4,
          "attributes": {
            "POSITION": 14,
            "NORMAL": 15,
            "TEXCOORD_0": 16,
            "TEXCOORD_1": 17
          },
          "indices": 18,
          "material": 1
        }
      ]
    },
    {
      "primitives": [
        {
          "mode": 4,
          "attributes": {
            "POSITION": 19,
            "NORMAL": 20,
            "TEXCOORD_0": 21,
            "TEXCOORD_1": 22
          },
          "indices": 23,
          "material": 4
        }
      ]
    },
    {
      "primitives": [
        {
          "mode": 4,
          "attributes": {
            "POSITION": 24,
            "NORMAL": 25,
            "TEXCOORD_0": 26,
            "TEXCOORD_1": 27
          },
          "indices": 28,
          "material": 5
        }
      ]
    }
  ]
}