{
  "asset": {
    "version": "2.0",
    "generator": "THREE.GLTFExporter r184"
  },
  "scenes": [
    {
      "name": "greenery.glb",
      "nodes": [
        0
      ]
    }
  ],
  "scene": 0,
  "nodes": [
    {
      "matrix": [
        0.10000000149011612,
        0,
        0,
        0,
        0,
        0.10000000149011612,
        0,
        0,
        0,
        0,
        0.10000000149011612,
        0,
        -97.63800048828125,
        0,
        -89.60900115966797,
        1
      ],
      "name": "greenery",
      "extras": {
        "name": "greenery"
      },
      "children": [
        1,
        2,
        3
      ]
    },
    {
      "matrix": [
        1,
        0,
        0,
        0,
        0,
        1,
        0,
        0,
        0,
        0,
        1,
        0,
        0,
        0,
        -0.00006103515625,
        1
      ],
      "name": "map_6osm_areas_footway",
      "extras": {
        "name": "map_6osm_areas_footway"
      },
      "mesh": 0
    },
    {
      "matrix": [
        1,
        0,
        0,
        0,
        0,
        1,
        0,
        0,
        0,
        0,
        1,
        0,
        0,
        0.10000000894069672,
        -0.00006103515625,
        1
      ],
      "name": "map_6osm_forest",
      "extras": {
        "name": "map_6osm_forest"
      },
      "mesh": 1
    },
    {
      "matrix": [
        1,
        0,
        0,
        0,
        0,
        1,
        0,
        0,
        0,
        0,
        1,
        0,
        0,
        0,
        -0.00006103515625,
        1
      ],
      "name": "map_6osm_vegetation",
      "extras": {
        "name": "map_6osm_vegetation"
      },
      "mesh": 2
    }
  ],
  "bufferViews": [
    {
      "buffer": 0,
      "byteOffset": 0,
      "byteLength": 86988,
      "target": 34962,
      "byteStride": 12
    },
    {
      "buffer": 0,
      "byteOffset": 86988,
      "byteLength": 86988,
      "target": 34962,
      "byteStride": 12
    },
    {
      "buffer": 0,
      "byteOffset": 173976,
      "byteLength": 41528,
      "target": 34963
    },
    {
      "buffer": 0,
      "byteOffset": 215504,
      "byteLength": 46236,
      "target": 34962,
      "byteStride": 12
    },
    {
      "buffer": 0,
      "byteOffset": 261740,
      "byteLength": 46236,
      "target": 34962,
      "byteStride": 12
    },
    {
      "buffer": 0,
      "byteOffset": 307976,
      "byteLength": 22068,
      "target": 34963
    },
    {
      "buffer": 0,
      "byteOffset": 330044,
      "byteLength": 247092,
      "target": 34962,
      "byteStride": 12
    },
    {
      "buffer": 0,
      "byteOffset": 577136,
      "byteLength": 247092,
      "target": 34962,
      "byteStride": 12
    },
    {
      "buffer": 0,
      "byteOffset": 824228,
      "byteLength": 112340,
      "target": 34963
    }
  ],
  "buffers": [
    {
      "byteLength": 936568,
      "uri": "data:application/octet-stream;base64,"
    }
  ],
  "accessors": [
    {
      "bufferView": 0,
      "componentType": 5126,
      "count": 7249,
      "max": [
        2457.472900390625,
        0,
        4923.8232421875
      ],
      "min": [
        -1069.74560546875,
        0,
        2225.841796875
      ],
      "type": "VEC3"
    },
    {
      "bufferView": 1,
      "componentType": 5126,
      "count": 7249,
      "max": [
        0,
        1,
        0.6265711784362793
      ],
      "min": [
        -0.7794129848480225,
        0,
        -0.778472900390625
      ],
      "type": "VEC3"
    },
    {
      "bufferView": 2,
      "componentType": 5123,
      "count": 20763,
      "max": [
        7248
      ],
      "min": [
        0
      ],
      "type": "SCALAR"
    },
    {
      "bufferView": 3,
      "componentType": 5126,
      "count": 3853,
      "max": [
        2454.974853515625,
        0,
        4923.2568359375
      ],
      "min": [
        -1378.1572265625,
        0,
        3289.79833984375
      ],
      "type": "VEC3"
    },
    {
      "bufferView": 4,
      "componentType": 5126,
      "count": 3853,
      "max": [
        0,
        1,
        0
      ],
      "min": [
        0,
        1,
        0
      ],
      "type": "VEC3"
    },
    {
      "bufferView": 5,
      "componentType": 5123,
      "count": 11034,
      "max": [
        3852
      ],
      "min": [
        0
      ],
      "type": "SCALAR"
    },
    {
      "bufferView": 6,
      "componentType": 5126,
      "count": 20591,
      "max": [
        3411.77734375,
        0,
        4966.11767578125
      ],
      "min": [
        -1930.3416748046875,
        0,
        1110.6685791015625
      ],
      "type": "VEC3"
    },
    {
      "bufferView": 7,
      "componentType": 5126,
      "count": 20591,
      "max": [
        0.0003000000142492354,
        1,
        0.0003000000142492354
      ],
      "min": [
        -0.0003000000142492354,
        1,
        -0.0003000000142492354
      ],
      "type": "VEC3"
    },
    {
      "bufferView": 8,
      "componentType": 5123,
      "count": 56169,
      "max": [
        20590
      ],
      "min": [
        0
      ],
      "type": "SCALAR"
    }
  ],
  "materials": [
    {
      "pbrMetallicRoughness": {
        "baseColorFactor": [
          0,
          0,
          0,
          1
        ],
        "metallicFactor": 0,
        "roughnessFactor": 0.5
      },
      "doubleSided": true,
      "name": "areas_footway"
    },
    {
      "pbrMetallicRoughness": {
        "baseColorFactor": [
          0.008568125615105716,
          0.06847816983662762,
          0.019382360952473074,
          1
        ],
        "metallicFactor": 0,
        "roughnessFactor": 0.5
      },
      "doubleSided": true,
      "name": "forest"
    },
    {
      "pbrMetallicRoughness": {
        "baseColorFactor": [
          0.045186202973127365,
          0.12477181851863861,
          0.02518685907125473,
          1
        ],
        "metallicFactor": 0,
        "roughnessFactor": 0.5
      },
      "doubleSided": true,
      "name": "vegetation"
    }
  ],
  "meshes": [
    {
      "primitives": [
        {
          "mode": 4,
          "attributes": {
            "POSITION": 0,
            "NORMAL": 1
          },
          "indices": 2,
          "material": 0
        }
      ]
    },
    {
      "primitives": [
        {
          "mode": 4,
          "attributes": {
            "POSITION": 3,
            "NORMAL": 4
          },
          "indices": 5,
          "material": 1
        }
      ]
    },
    {
      "primitives": [
        {
          "mode": 4,
          "attributes": {
            "POSITION": 6,
            "NORMAL": 7
          },
          "indices": 8,
          "material": 2
        }
      ]
    }
  ]
}