{
  "asset": {
    "version": "2.0",
    "generator": "THREE.GLTFExporter r184"
  },
  "scenes": [
    {
      "name": "Scene",
      "nodes": [
        0
      ]
    }
  ],
  "scene": 0,
  "nodes": [
    {
      "name": "Solid.001",
      "mesh": 0
    }
  ],
  "bufferViews": [
    {
      "buffer": 0,
      "byteOffset": 0,
      "byteLength": 1172880,
      "target": 34962,
      "byteStride": 12
    },
    {
      "buffer": 0,
      "byteOffset": 1172880,
      "byteLength": 1172880,
      "target": 34962,
      "byteStride": 12
    },
    {
      "buffer": 0,
      "byteOffset": 2345760,
      "byteLength": 260640,
      "target": 34963
    },
    {
      "buffer": 0,
      "byteOffset": 2606400,
      "byteLength": 130320,
      "target": 34963
    }
  ],
  "buffers": [
    {
      "byteLength": 2736720,
      "uri": "data:application/octet-stream;base64,"
    }
  ],
  "accessors": [
    {
      "bufferView": 0,
      "componentType": 5126,
      "count": 97740,
      "max": [
        0.9680200219154358,
        0.9680200219154358,
        0.9680200219154358
      ],
      "min": [
        -0.9680200219154358,
        -0.9680200219154358,
        -0.9680200219154358
      ],
      "type": "VEC3"
    },
    {
      "bufferView": 1,
      "componentType": 5126,
      "count": 97740,
      "max": [
        1,
        1,
        1
      ],
      "min": [
        -1,
        -1,
        -1
      ],
      "type": "VEC3"
    },
    {
      "bufferView": 2,
      "componentType": 5125,
      "count": 65160,
      "max": [
        65159
      ],
      "min": [
        0
      ],
      "type": "SCALAR"
    },
    {
      "bufferView": 3,
      "componentType": 5125,
      "count": 32580,
      "max": [
        97739
      ],
      "min": [
        65160
      ],
      "type": "SCALAR"
    }
  ],
  "materials": [
    {
      "pbrMetallicRoughness": {
        "baseColorFactor": [
          0.6038273388475408,
          0.6038273388475408,
          0.6038273388475408,
          1
        ],
        "metallicFactor": 0,
        "roughnessFactor": 0.3
      }
    },
    {
      "pbrMetallicRoughness": {
        "baseColorFactor": [
          0.010329823026364548,
          0.010329823026364548,
          0.010329823026364548,
          1
        ],
        "metallicFactor": 0,
        "roughnessFactor": 0.3
      }
    }
  ],
  "meshes": [
    {
      "primitives": [
        {
          "mode": 4,
          "attributes": {
            "POSITION": 0,
            "NORMAL": 1
          },
          "indices": 2,
          "material": 0
        },
        {
          "mode": 4,
          "attributes": {
            "POSITION": 0,
            "NORMAL": 1
          },
          "indices": 3,
          "material": 1
        }
      ]
    }
  ]
}