{
  "asset": {
    "version": "2.0",
    "generator": "THREE.GLTFExporter r182"
  },
  "scenes": [
    {
      "name": "Scene",
      "nodes": [
        0,
        1,
        2,
        3,
        4,
        5,
        6,
        7,
        8,
        9,
        10,
        11,
        12,
        13
      ]
    }
  ],
  "scene": 0,
  "nodes": [
    {
      "matrix": [
        0.8,
        0,
        0,
        0,
        0,
        0.1,
        0,
        0,
        0,
        0,
        0.8,
        0,
        0,
        3.5,
        0,
        1
      ],
      "name": "Seat",
      "mesh": 0
    },
    {
      "matrix": [
        0.8,
        0,
        0,
        0,
        0,
        1.7763568394002506e-16,
        0.8,
        0,
        0,
        -0.8,
        1.7763568394002506e-16,
        0,
        0,
        3.5,
        0,
        1
      ],
      "name": "Seat Edge",
      "mesh": 1
    },
    {
      "matrix": [
        0.0984807753012208,
        0.017101007166283436,
        -0.0030153689607045806,
        0,
        -0.6077686218342562,
        3.3944620863753396,
        -0.5985352508199202,
        0,
        0,
        0.017364817766693033,
        0.0984807753012208,
        0,
        0.7,
        1.75,
        0.7,
        1
      ],
      "name": "Leg1",
      "mesh": 2
    },
    {
      "matrix": [
        0.0984807753012208,
        -0.017101007166283436,
        0.0030153689607045806,
        0,
        0.6077686218342562,
        3.3944620863753396,
        -0.5985352508199202,
        0,
        0,
        0.017364817766693033,
        0.0984807753012208,
        0,
        -0.7,
        1.75,
        0.7,
        1
      ],
      "name": "Leg2",
      "mesh": 3
    },
    {
      "matrix": [
        0.0984807753012208,
        0.017101007166283436,
        0.0030153689607045806,
        0,
        -0.6077686218342562,
        3.3944620863753396,
        0.5985352508199202,
        0,
        0,
        -0.017364817766693033,
        0.0984807753012208,
        0,
        0.7,
        1.75,
        -0.7,
        1
      ],
      "name": "Leg3",
      "mesh": 4
    },
    {
      "matrix": [
        0.0984807753012208,
        -0.017101007166283436,
        -0.0030153689607045806,
        0,
        0.6077686218342562,
        3.3944620863753396,
        0.5985352508199202,
        0,
        0,
        -0.017364817766693033,
        0.0984807753012208,
        0,
        -0.7,
        1.75,
        -0.7,
        1
      ],
      "name": "Leg4",
      "mesh": 5
    },
    {
      "matrix": [
        0.05,
        0,
        0,
        0,
        0,
        2.6645352591003756e-16,
        1.2,
        0,
        0,
        -0.05,
        1.1102230246251566e-17,
        0,
        -0.6,
        2.3502891276715054,
        0,
        1
      ],
      "name": "Top Strut 1",
      "mesh": 6
    },
    {
      "matrix": [
        0.05,
        0,
        0,
        0,
        0,
        2.6645352591003756e-16,
        1.2,
        0,
        0,
        -0.05,
        1.1102230246251566e-17,
        0,
        0.5917497628323145,
        2.3502057545804087,
        0,
        1
      ],
      "name": "Top Strut 2",
      "mesh": 6
    },
    {
      "matrix": [
        1.1102230246251566e-17,
        1.1102230246251566e-17,
        0.05,
        0,
        -1.2,
        0,
        2.6645352591003756e-16,
        0,
        0,
        -0.05,
        1.1102230246251566e-17,
        0,
        0,
        2.3502891276715054,
        0.6,
        1
      ],
      "name": "Top Strut 3",
      "mesh": 6
    },
    {
      "matrix": [
        1.1102230246251566e-17,
        1.1102230246251566e-17,
        0.05,
        0,
        -1.2,
        0,
        2.6645352591003756e-16,
        0,
        0,
        -0.05,
        1.1102230246251566e-17,
        0,
        0,
        2.3502891276715054,
        -0.6,
        1
      ],
      "name": "Top Strut 4",
      "mesh": 6
    },
    {
      "matrix": [
        0.05,
        0,
        0,
        0,
        0,
        3.3306690738754696e-16,
        1.5,
        0,
        0,
        -0.05,
        1.1102230246251566e-17,
        0,
        -0.8,
        1.15,
        0,
        1
      ],
      "name": "Bottom Strut 1",
      "mesh": 6
    },
    {
      "matrix": [
        0.05,
        0,
        0,
        0,
        0,
        3.3306690738754696e-16,
        1.5,
        0,
        0,
        -0.05,
        1.1102230246251566e-17,
        0,
        0.8,
        1.15,
        0,
        1
      ],
      "name": "Bottom Strut 2",
      "mesh": 6
    },
    {
      "matrix": [
        1.1102230246251566e-17,
        1.1102230246251566e-17,
        0.05,
        0,
        -1.5,
        0,
        3.3306690738754696e-16,
        0,
        0,
        -0.05,
        1.1102230246251566e-17,
        0,
        0,
        1.15,
        0.8,
        1
      ],
      "name": "Bottom Strut 3",
      "mesh": 6
    },
    {
      "matrix": [
        1.1102230246251566e-17,
        1.1102230246251566e-17,
        0.05,
        0,
        -1.5,
        0,
        3.3306690738754696e-16,
        0,
        0,
        -0.05,
        1.1102230246251566e-17,
        0,
        0,
        1.15,
        -0.8,
        1
      ],
      "name": "Bottom Strut 4",
      "mesh": 6
    }
  ],
  "bufferViews": [
    {
      "buffer": 0,
      "byteOffset": 0,
      "byteLength": 2352,
      "target": 34962,
      "byteStride": 12
    },
    {
      "buffer": 0,
      "byteOffset": 2352,
      "byteLength": 2352,
      "target": 34962,
      "byteStride": 12
    },
    {
      "buffer": 0,
      "byteOffset": 4704,
      "byteLength": 1568,
      "target": 34962,
      "byteStride": 8
    },
    {
      "buffer": 0,
      "byteOffset": 6272,
      "byteLength": 768,
      "target": 34963
    },
    {
      "buffer": 0,
      "byteOffset": 7040,
      "byteLength": 7644,
      "target": 34962,
      "byteStride": 12
    },
    {
      "buffer": 0,
      "byteOffset": 14684,
      "byteLength": 7644,
      "target": 34962,
      "byteStride": 12
    },
    {
      "buffer": 0,
      "byteOffset": 22328,
      "byteLength": 5096,
      "target": 34962,
      "byteStride": 8
    },
    {
      "buffer": 0,
      "byteOffset": 27424,
      "byteLength": 6912,
      "target": 34963
    },
    {
      "buffer": 0,
      "byteOffset": 34336,
      "byteLength": 2352,
      "target": 34962,
      "byteStride": 12
    },
    {
      "buffer": 0,
      "byteOffset": 36688,
      "byteLength": 2352,
      "target": 34962,
      "byteStride": 12
    },
    {
      "buffer": 0,
      "byteOffset": 39040,
      "byteLength": 1568,
      "target": 34962,
      "byteStride": 8
    },
    {
      "buffer": 0,
      "byteOffset": 40608,
      "byteLength": 768,
      "target": 34963
    },
    {
      "buffer": 0,
      "byteOffset": 41376,
      "byteLength": 2352,
      "target": 34962,
      "byteStride": 12
    },
    {
      "buffer": 0,
      "byteOffset": 43728,
      "byteLength": 2352,
      "target": 34962,
      "byteStride": 12
    },
    {
      "buffer": 0,
      "byteOffset": 46080,
      "byteLength": 1568,
      "target": 34962,
      "byteStride": 8
    },
    {
      "buffer": 0,
      "byteOffset": 47648,
      "byteLength": 768,
      "target": 34963
    },
    {
      "buffer": 0,
      "byteOffset": 48416,
      "byteLength": 2352,
      "target": 34962,
      "byteStride": 12
    },
    {
      "buffer": 0,
      "byteOffset": 50768,
      "byteLength": 2352,
      "target": 34962,
      "byteStride": 12
    },
    {
      "buffer": 0,
      "byteOffset": 53120,
      "byteLength": 1568,
      "target": 34962,
      "byteStride": 8
    },
    {
      "buffer": 0,
      "byteOffset": 54688,
      "byteLength": 768,
      "target": 34963
    },
    {
      "buffer": 0,
      "byteOffset": 55456,
      "byteLength": 2352,
      "target": 34962,
      "byteStride": 12
    },
    {
      "buffer": 0,
      "byteOffset": 57808,
      "byteLength": 2352,
      "target": 34962,
      "byteStride": 12
    },
    {
      "buffer": 0,
      "byteOffset": 60160,
      "byteLength": 1568,
      "target": 34962,
      "byteStride": 8
    },
    {
      "buffer": 0,
      "byteOffset": 61728,
      "byteLength": 768,
      "target": 34963
    },
    {
      "buffer": 0,
      "byteOffset": 62496,
      "byteLength": 2352,
      "target": 34962,
      "byteStride": 12
    },
    {
      "buffer": 0,
      "byteOffset": 64848,
      "byteLength": 2352,
      "target": 34962,
      "byteStride": 12
    },
    {
      "buffer": 0,
      "byteOffset": 67200,
      "byteLength": 1568,
      "target": 34962,
      "byteStride": 8
    },
    {
      "buffer": 0,
      "byteOffset": 68768,
      "byteLength": 768,
      "target": 34963
    }
  ],
  "buffers": [
    {
      "byteLength": 69536,
      "uri": "data:application/octet-stream;base64,"
    }
  ],
  "accessors": [
    {
      "bufferView": 0,
      "componentType": 5126,
      "count": 196,
      "max": [
        1,
        0.5,
        1
      ],
      "min": [
        -1,
        -0.5,
        -1
      ],
      "type": "VEC3"
    },
    {
      "bufferView": 1,
      "componentType": 5126,
      "count": 196,
      "max": [
        1,
        1,
        1
      ],
      "min": [
        -1,
        -1,
        -1
      ],
      "type": "VEC3"
    },
    {
      "bufferView": 2,
      "componentType": 5126,
      "count": 196,
      "max": [
        1,
        1
      ],
      "min": [
        0,
        0
      ],
      "type": "VEC2"
    },
    {
      "bufferView": 3,
      "componentType": 5123,
      "count": 384,
      "max": [
        195
      ],
      "min": [
        0
      ],
      "type": "SCALAR"
    },
    {
      "bufferView": 4,
      "componentType": 5126,
      "count": 637,
      "max": [
        1.100000023841858,
        1.100000023841858,
        0.10000000149011612
      ],
      "min": [
        -1.100000023841858,
        -1.100000023841858,
        -0.10000000149011612
      ],
      "type": "VEC3"
    },
    {
      "bufferView": 5,
      "componentType": 5126,
      "count": 637,
      "max": [
        1,
        1,
        1
      ],
      "min": [
        -1,
        -1,
        -1
      ],
      "type": "VEC3"
    },
    {
      "bufferView": 6,
      "componentType": 5126,
      "count": 637,
      "max": [
        1,
        1
      ],
      "min": [
        0,
        0
      ],
      "type": "VEC2"
    },
    {
      "bufferView": 7,
      "componentType": 5123,
      "count": 3456,
      "max": [
        636
      ],
      "min": [
        0
      ],
      "type": "SCALAR"
    },
    {
      "bufferView": 8,
      "componentType": 5126,
      "count": 196,
      "max": [
        1,
        0.5,
        1
      ],
      "min": [
        -1,
        -0.5,
        -1
      ],
      "type": "VEC3"
    },
    {
      "bufferView": 9,
      "componentType": 5126,
      "count": 196,
      "max": [
        0.9578262567520142,
        1,
        0.9578262567520142
      ],
      "min": [
        -0.9578262567520142,
        -1,
        -0.9578262567520142
      ],
      "type": "VEC3"
    },
    {
      "bufferView": 10,
      "componentType": 5126,
      "count": 196,
      "max": [
        1,
        1
      ],
      "min": [
        0,
        0
      ],
      "type": "VEC2"
    },
    {
      "bufferView": 11,
      "componentType": 5123,
      "count": 384,
      "max": [
        195
      ],
      "min": [
        0
      ],
      "type": "SCALAR"
    },
    {
      "bufferView": 12,
      "componentType": 5126,
      "count": 196,
      "max": [
        1,
        0.5,
        1
      ],
      "min": [
        -1,
        -0.5,
        -1
      ],
      "type": "VEC3"
    },
    {
      "bufferView": 13,
      "componentType": 5126,
      "count": 196,
      "max": [
        0.9578262567520142,
        1,
        0.9578262567520142
      ],
      "min": [
        -0.9578262567520142,
        -1,
        -0.9578262567520142
      ],
      "type": "VEC3"
    },
    {
      "bufferView": 14,
      "componentType": 5126,
      "count": 196,
      "max": [
        1,
        1
      ],
      "min": [
        0,
        0
      ],
      "type": "VEC2"
    },
    {
      "bufferView": 15,
      "componentType": 5123,
      "count": 384,
      "max": [
        195
      ],
      "min": [
        0
      ],
      "type": "SCALAR"
    },
    {
      "bufferView": 16,
      "componentType": 5126,
      "count": 196,
      "max": [
        1,
        0.5,
        1
      ],
      "min": [
        -1,
        -0.5,
        -1
      ],
      "type": "VEC3"
    },
    {
      "bufferView": 17,
      "componentType": 5126,
      "count": 196,
      "max": [
        0.9578262567520142,
        1,
        0.9578262567520142
      ],
      "min": [
        -0.9578262567520142,
        -1,
        -0.9578262567520142
      ],
      "type": "VEC3"
    },
    {
      "bufferView": 18,
      "componentType": 5126,
      "count": 196,
      "max": [
        1,
        1
      ],
      "min": [
        0,
        0
      ],
      "type": "VEC2"
    },
    {
      "bufferView": 19,
      "componentType": 5123,
      "count": 384,
      "max": [
        195
      ],
      "min": [
        0
      ],
      "type": "SCALAR"
    },
    {
      "bufferView": 20,
      "componentType": 5126,
      "count": 196,
      "max": [
        1,
        0.5,
        1
      ],
      "min": [
        -1,
        -0.5,
        -1
      ],
      "type": "VEC3"
    },
    {
      "bufferView": 21,
      "componentType": 5126,
      "count": 196,
      "max": [
        0.9578262567520142,
        1,
        0.9578262567520142
      ],
      "min": [
        -0.9578262567520142,
        -1,
        -0.9578262567520142
      ],
      "type": "VEC3"
    },
    {
      "bufferView": 22,
      "componentType": 5126,
      "count": 196,
      "max": [
        1,
        1
      ],
      "min": [
        0,
        0
      ],
      "type": "VEC2"
    },
    {
      "bufferView": 23,
      "componentType": 5123,
      "count": 384,
      "max": [
        195
      ],
      "min": [
        0
      ],
      "type": "SCALAR"
    },
    {
      "bufferView": 24,
      "componentType": 5126,
      "count": 196,
      "max": [
        1,
        0.5,
        1
      ],
      "min": [
        -1,
        -0.5,
        -1
      ],
      "type": "VEC3"
    },
    {
      "bufferView": 25,
      "componentType": 5126,
      "count": 196,
      "max": [
        1,
        1,
        1
      ],
      "min": [
        -1,
        -1,
        -1
      ],
      "type": "VEC3"
    },
    {
      "bufferView": 26,
      "componentType": 5126,
      "count": 196,
      "max": [
        1,
        1
      ],
      "min": [
        0,
        0
      ],
      "type": "VEC2"
    },
    {
      "bufferView": 27,
      "componentType": 5123,
      "count": 384,
      "max": [
        195
      ],
      "min": [
        0
      ],
      "type": "SCALAR"
    }
  ],
  "materials": [
    {
      "pbrMetallicRoughness": {
        "metallicFactor": 0,
        "roughnessFactor": 1
      }
    },
    {
      "pbrMetallicRoughness": {
        "metallicFactor": 0,
        "roughnessFactor": 1
      }
    },
    {
      "pbrMetallicRoughness": {
        "metallicFactor": 0,
        "roughnessFactor": 1
      }
    },
    {
      "pbrMetallicRoughness": {
        "metallicFactor": 0,
        "roughnessFactor": 1
      }
    }
  ],
  "meshes": [
    {
      "primitives": [
        {
          "mode": 4,
          "attributes": {
            "POSITION": 0,
            "NORMAL": 1,
            "TEXCOORD_0": 2
          },
          "indices": 3,
          "material": 0
        }
      ]
    },
    {
      "primitives": [
        {
          "mode": 4,
          "attributes": {
            "POSITION": 4,
            "NORMAL": 5,
            "TEXCOORD_0": 6
          },
          "indices": 7,
          "material": 1
        }
      ]
    },
    {
      "primitives": [
        {
          "mode": 4,
          "attributes": {
            "POSITION": 8,
            "NORMAL": 9,
            "TEXCOORD_0": 10
          },
          "indices": 11,
          "material": 2
        }
      ]
    },
    {
      "primitives": [
        {
          "mode": 4,
          "attributes": {
            "POSITION": 12,
            "NORMAL": 13,
            "TEXCOORD_0": 14
          },
          "indices": 15,
          "material": 2
        }
      ]
    },
    {
      "primitives": [
        {
          "mode": 4,
          "attributes": {
            "POSITION": 16,
            "NORMAL": 17,
            "TEXCOORD_0": 18
          },
          "indices": 19,
          "material": 2
        }
      ]
    },
    {
      "primitives": [
        {
          "mode": 4,
          "attributes": {
            "POSITION": 20,
            "NORMAL": 21,
            "TEXCOORD_0": 22
          },
          "indices": 23,
          "material": 2
        }
      ]
    },
    {
      "primitives": [
        {
          "mode": 4,
          "attributes": {
            "POSITION": 24,
            "NORMAL": 25,
            "TEXCOORD_0": 26
          },
          "indices": 27,
          "material": 3
        }
      ]
    }
  ]
}