{
  "asset": {
    "version": "2.0",
    "generator": "THREE.GLTFExporter r182"
  },
  "scenes": [
    {
      "name": "Scene",
      "nodes": [
        0,
        1,
        2,
        3,
        4,
        5
      ]
    }
  ],
  "scene": 0,
  "nodes": [
    {
      "matrix": [
        20,
        0,
        0,
        0,
        0,
        1.75,
        0,
        0,
        0,
        0,
        20,
        0,
        0,
        16.375,
        0,
        1
      ],
      "name": "tableTop",
      "mesh": 0
    },
    {
      "matrix": [
        1.75,
        0,
        0,
        0,
        0,
        15.5,
        0,
        0,
        0,
        0,
        1.75,
        0,
        9.125,
        8.02,
        9.125,
        1
      ],
      "name": "Leg1",
      "mesh": 1
    },
    {
      "matrix": [
        1.75,
        0,
        0,
        0,
        0,
        15.5,
        0,
        0,
        0,
        0,
        1.75,
        0,
        -9.125,
        8.02,
        9.125,
        1
      ],
      "name": "Leg2",
      "mesh": 1
    },
    {
      "matrix": [
        1.75,
        0,
        0,
        0,
        0,
        15.5,
        0,
        0,
        0,
        0,
        1.75,
        0,
        -9.125,
        8.02,
        -9.125,
        1
      ],
      "name": "Leg3",
      "mesh": 1
    },
    {
      "matrix": [
        1.75,
        0,
        0,
        0,
        0,
        15.5,
        0,
        0,
        0,
        0,
        1.75,
        0,
        9.125,
        8.02,
        -9.125,
        1
      ],
      "name": "Leg4",
      "mesh": 1
    },
    {
      "matrix": [
        0.11475657071556425,
        3.3306690738754695e-18,
        0.03508460456672841,
        0,
        0.03508460456672841,
        -2.6645352591003756e-17,
        -0.11475657071556426,
        0,
        3.3306690738754695e-18,
        0.12,
        -2.6645352591003756e-17,
        0,
        -13.162552699117846,
        17.411045477617403,
        3.626450087074377,
        1
      ],
      "name": "teapot",
      "mesh": 2
    }
  ],
  "bufferViews": [
    {
      "buffer": 0,
      "byteOffset": 0,
      "byteLength": 288,
      "target": 34962,
      "byteStride": 12
    },
    {
      "buffer": 0,
      "byteOffset": 288,
      "byteLength": 288,
      "target": 34962,
      "byteStride": 12
    },
    {
      "buffer": 0,
      "byteOffset": 576,
      "byteLength": 192,
      "target": 34962,
      "byteStride": 8
    },
    {
      "buffer": 0,
      "byteOffset": 768,
      "byteLength": 72,
      "target": 34963
    },
    {
      "buffer": 0,
      "byteOffset": 840,
      "byteLength": 288,
      "target": 34962,
      "byteStride": 12
    },
    {
      "buffer": 0,
      "byteOffset": 1128,
      "byteLength": 288,
      "target": 34962,
      "byteStride": 12
    },
    {
      "buffer": 0,
      "byteOffset": 1416,
      "byteLength": 192,
      "target": 34962,
      "byteStride": 8
    },
    {
      "buffer": 0,
      "byteOffset": 1608,
      "byteLength": 72,
      "target": 34963
    },
    {
      "buffer": 0,
      "byteOffset": 1680,
      "byteLength": 339768,
      "target": 34962,
      "byteStride": 12
    },
    {
      "buffer": 0,
      "byteOffset": 341448,
      "byteLength": 339768,
      "target": 34962,
      "byteStride": 12
    }
  ],
  "buffers": [
    {
      "byteLength": 681216,
      "uri": "data:application/octet-stream;base64,"
    }
  ],
  "accessors": [
    {
      "bufferView": 0,
      "componentType": 5126,
      "count": 24,
      "max": [
        0.5,
        0.5,
        0.5
      ],
      "min": [
        -0.5,
        -0.5,
        -0.5
      ],
      "type": "VEC3"
    },
    {
      "bufferView": 1,
      "componentType": 5126,
      "count": 24,
      "max": [
        1,
        1,
        1
      ],
      "min": [
        -1,
        -1,
        -1
      ],
      "type": "VEC3"
    },
    {
      "bufferView": 2,
      "componentType": 5126,
      "count": 24,
      "max": [
        1,
        1
      ],
      "min": [
        0,
        0
      ],
      "type": "VEC2"
    },
    {
      "bufferView": 3,
      "componentType": 5123,
      "count": 36,
      "max": [
        23
      ],
      "min": [
        0
      ],
      "type": "SCALAR"
    },
    {
      "bufferView": 4,
      "componentType": 5126,
      "count": 24,
      "max": [
        0.5,
        0.5,
        0.5
      ],
      "min": [
        -0.5,
        -0.5,
        -0.5
      ],
      "type": "VEC3"
    },
    {
      "bufferView": 5,
      "componentType": 5126,
      "count": 24,
      "max": [
        1,
        1,
        1
      ],
      "min": [
        -1,
        -1,
        -1
      ],
      "type": "VEC3"
    },
    {
      "bufferView": 6,
      "componentType": 5126,
      "count": 24,
      "max": [
        1,
        1
      ],
      "min": [
        0,
        0
      ],
      "type": "VEC2"
    },
    {
      "bufferView": 7,
      "componentType": 5123,
      "count": 36,
      "max": [
        23
      ],
      "min": [
        0
      ],
      "type": "SCALAR"
    },
    {
      "bufferView": 8,
      "componentType": 5126,
      "count": 28314,
      "max": [
        131.04466247558594,
        92.21648406982422,
        51.662960052490234
      ],
      "min": [
        21.193071365356445,
        23.92249298095703,
        -0.00000476837158203125
      ],
      "type": "VEC3"
    },
    {
      "bufferView": 9,
      "componentType": 5126,
      "count": 28314,
      "max": [
        0.9970191717147827,
        0.9977693557739258,
        1
      ],
      "min": [
        -0.9969344139099121,
        -0.9974011778831482,
        -1
      ],
      "type": "VEC3"
    }
  ],
  "materials": [
    {
      "pbrMetallicRoughness": {
        "baseColorFactor": [
          0.05126945836711539,
          0.05126945836711539,
          0.05126945836711539,
          1
        ],
        "metallicFactor": 0,
        "roughnessFactor": 1
      }
    },
    {
      "pbrMetallicRoughness": {
        "baseColorFactor": [
          0.05126945836711539,
          0.05126945836711539,
          0.05126945836711539,
          1
        ],
        "metallicFactor": 0,
        "roughnessFactor": 1
      }
    },
    {
      "pbrMetallicRoughness": {
        "baseColorFactor": [
          0.8069522576650873,
          0.04373502925049377,
          0.3515325994898463,
          1
        ],
        "metallicFactor": 0,
        "roughnessFactor": 1
      }
    }
  ],
  "meshes": [
    {
      "primitives": [
        {
          "mode": 4,
          "attributes": {
            "POSITION": 0,
            "NORMAL": 1,
            "TEXCOORD_0": 2
          },
          "indices": 3,
          "material": 0
        }
      ]
    },
    {
      "primitives": [
        {
          "mode": 4,
          "attributes": {
            "POSITION": 4,
            "NORMAL": 5,
            "TEXCOORD_0": 6
          },
          "indices": 7,
          "material": 1
        }
      ]
    },
    {
      "primitives": [
        {
          "mode": 4,
          "attributes": {
            "POSITION": 8,
            "NORMAL": 9
          },
          "material": 2
        }
      ]
    }
  ]
}