{
  "asset": {
    "version": "2.0",
    "generator": "THREE.GLTFExporter r183"
  },
  "scenes": [
    {
      "name": "Scene",
      "nodes": [
        0
      ]
    }
  ],
  "scene": 0,
  "nodes": [
    {
      "matrix": [
        0.9624078464991239,
        0,
        -0.2716084258577387,
        0,
        0,
        1,
        0,
        0,
        0.2716084258577387,
        0,
        0.9624078464991239,
        0,
        0,
        0,
        0,
        1
      ],
      "name": "fullGun",
      "children": [
        1,
        4,
        11,
        18,
        19,
        20
      ]
    },
    {
      "matrix": [
        0.7123935948500393,
        0.7017801407967015,
        0,
        0,
        -0.7017801407967015,
        0.7123935948500393,
        0,
        0,
        0,
        0,
        1,
        0,
        0,
        0,
        0,
        1
      ],
      "name": "rotatingBarrel",
      "children": [
        2,
        3
      ]
    },
    {
      "matrix": [
        1,
        0,
        0,
        0,
        0,
        1,
        0,
        0,
        0,
        0,
        1,
        0,
        0,
        5,
        0,
        1
      ],
      "name": "barrel",
      "mesh": 0
    },
    {
      "matrix": [
        1,
        0,
        0,
        0,
        0,
        1,
        0,
        0,
        0,
        0,
        1,
        0,
        0,
        0.20464689382649004,
        0,
        1
      ],
      "name": "receiver",
      "mesh": 1
    },
    {
      "matrix": [
        0.9563047559630354,
        0.29237170472273677,
        0,
        0,
        -0.29237170472273677,
        0.9563047559630354,
        0,
        0,
        0,
        0,
        1,
        0,
        0,
        0,
        1.5,
        1
      ],
      "name": "spokesR",
      "children": [
        5,
        6,
        7,
        8,
        9,
        10
      ]
    },
    {
      "matrix": [
        -0.8660254037844388,
        0.49999999999999994,
        0,
        0,
        -0.49999999999999994,
        -0.8660254037844388,
        0,
        0,
        0,
        0,
        1,
        0,
        0,
        0,
        0,
        1
      ],
      "name": "spokeR",
      "mesh": 2
    },
    {
      "matrix": [
        -0.4999999999999998,
        0.8660254037844388,
        0,
        0,
        -0.8660254037844388,
        -0.4999999999999998,
        0,
        0,
        0,
        0,
        1,
        0,
        0,
        0,
        0,
        1
      ],
      "name": "spokeR",
      "mesh": 2
    },
    {
      "matrix": [
        2.220446049250313e-16,
        1,
        0,
        0,
        -1,
        2.220446049250313e-16,
        0,
        0,
        0,
        0,
        1,
        0,
        0,
        0,
        0,
        1
      ],
      "name": "spokeR",
      "mesh": 2
    },
    {
      "matrix": [
        0.5000000000000001,
        0.8660254037844386,
        0,
        0,
        -0.8660254037844386,
        0.5000000000000001,
        0,
        0,
        0,
        0,
        1,
        0,
        0,
        0,
        0,
        1
      ],
      "name": "spokeR",
      "mesh": 2
    },
    {
      "matrix": [
        0.8660254037844387,
        0.49999999999999994,
        0,
        0,
        -0.49999999999999994,
        0.8660254037844387,
        0,
        0,
        0,
        0,
        1,
        0,
        0,
        0,
        0,
        1
      ],
      "name": "spokeR",
      "mesh": 2
    },
    {
      "name": "spokeR",
      "mesh": 3
    },
    {
      "matrix": [
        0.992546151641322,
        0.12186934340514748,
        0,
        0,
        -0.12186934340514748,
        0.992546151641322,
        0,
        0,
        0,
        0,
        1,
        0,
        0,
        0,
        -1.5,
        1
      ],
      "name": "spokesR",
      "children": [
        12,
        13,
        14,
        15,
        16,
        17
      ]
    },
    {
      "matrix": [
        -0.8660254037844388,
        0.49999999999999994,
        0,
        0,
        -0.49999999999999994,
        -0.8660254037844388,
        0,
        0,
        0,
        0,
        1,
        0,
        0,
        0,
        0,
        1
      ],
      "name": "spokeR",
      "mesh": 2
    },
    {
      "matrix": [
        -0.4999999999999998,
        0.8660254037844388,
        0,
        0,
        -0.8660254037844388,
        -0.4999999999999998,
        0,
        0,
        0,
        0,
        1,
        0,
        0,
        0,
        0,
        1
      ],
      "name": "spokeR",
      "mesh": 2
    },
    {
      "matrix": [
        2.220446049250313e-16,
        1,
        0,
        0,
        -1,
        2.220446049250313e-16,
        0,
        0,
        0,
        0,
        1,
        0,
        0,
        0,
        0,
        1
      ],
      "name": "spokeR",
      "mesh": 2
    },
    {
      "matrix": [
        0.5000000000000001,
        0.8660254037844386,
        0,
        0,
        -0.8660254037844386,
        0.5000000000000001,
        0,
        0,
        0,
        0,
        1,
        0,
        0,
        0,
        0,
        1
      ],
      "name": "spokeR",
      "mesh": 2
    },
    {
      "matrix": [
        0.8660254037844387,
        0.49999999999999994,
        0,
        0,
        -0.49999999999999994,
        0.8660254037844387,
        0,
        0,
        0,
        0,
        1,
        0,
        0,
        0,
        0,
        1
      ],
      "name": "spokeR",
      "mesh": 2
    },
    {
      "name": "spokeR",
      "mesh": 4
    },
    {
      "matrix": [
        1,
        0,
        0,
        0,
        0,
        2.220446049250313e-16,
        1,
        0,
        0,
        -1,
        2.220446049250313e-16,
        0,
        0,
        0,
        0,
        1
      ],
      "name": "axle",
      "mesh": 5
    },
    {
      "matrix": [
        2,
        0,
        0,
        0,
        0,
        4.440892098500626e-16,
        2,
        0,
        0,
        -2,
        4.440892098500626e-16,
        0,
        0,
        0,
        -1.5,
        1
      ],
      "name": "wheelR",
      "mesh": 6
    },
    {
      "matrix": [
        2,
        0,
        0,
        0,
        0,
        4.440892098500626e-16,
        2,
        0,
        0,
        -2,
        4.440892098500626e-16,
        0,
        0,
        0,
        1.5083607217675432,
        1
      ],
      "name": "wheelL",
      "mesh": 6
    }
  ],
  "bufferViews": [
    {
      "buffer": 0,
      "byteOffset": 0,
      "byteLength": 9216,
      "target": 34962,
      "byteStride": 12
    },
    {
      "buffer": 0,
      "byteOffset": 9216,
      "byteLength": 9216,
      "target": 34962,
      "byteStride": 12
    },
    {
      "buffer": 0,
      "byteOffset": 18432,
      "byteLength": 6144,
      "target": 34962,
      "byteStride": 8
    },
    {
      "buffer": 0,
      "byteOffset": 24576,
      "byteLength": 2352,
      "target": 34962,
      "byteStride": 12
    },
    {
      "buffer": 0,
      "byteOffset": 26928,
      "byteLength": 2352,
      "target": 34962,
      "byteStride": 12
    },
    {
      "buffer": 0,
      "byteOffset": 29280,
      "byteLength": 1568,
      "target": 34962,
      "byteStride": 8
    },
    {
      "buffer": 0,
      "byteOffset": 30848,
      "byteLength": 768,
      "target": 34963
    },
    {
      "buffer": 0,
      "byteOffset": 31616,
      "byteLength": 2352,
      "target": 34962,
      "byteStride": 12
    },
    {
      "buffer": 0,
      "byteOffset": 33968,
      "byteLength": 2352,
      "target": 34962,
      "byteStride": 12
    },
    {
      "buffer": 0,
      "byteOffset": 36320,
      "byteLength": 1568,
      "target": 34962,
      "byteStride": 8
    },
    {
      "buffer": 0,
      "byteOffset": 37888,
      "byteLength": 768,
      "target": 34963
    },
    {
      "buffer": 0,
      "byteOffset": 38656,
      "byteLength": 2352,
      "target": 34962,
      "byteStride": 12
    },
    {
      "buffer": 0,
      "byteOffset": 41008,
      "byteLength": 2352,
      "target": 34962,
      "byteStride": 12
    },
    {
      "buffer": 0,
      "byteOffset": 43360,
      "byteLength": 1568,
      "target": 34962,
      "byteStride": 8
    },
    {
      "buffer": 0,
      "byteOffset": 44928,
      "byteLength": 768,
      "target": 34963
    },
    {
      "buffer": 0,
      "byteOffset": 45696,
      "byteLength": 2352,
      "target": 34962,
      "byteStride": 12
    },
    {
      "buffer": 0,
      "byteOffset": 48048,
      "byteLength": 2352,
      "target": 34962,
      "byteStride": 12
    },
    {
      "buffer": 0,
      "byteOffset": 50400,
      "byteLength": 1568,
      "target": 34962,
      "byteStride": 8
    },
    {
      "buffer": 0,
      "byteOffset": 51968,
      "byteLength": 768,
      "target": 34963
    },
    {
      "buffer": 0,
      "byteOffset": 52736,
      "byteLength": 2352,
      "target": 34962,
      "byteStride": 12
    },
    {
      "buffer": 0,
      "byteOffset": 55088,
      "byteLength": 2352,
      "target": 34962,
      "byteStride": 12
    },
    {
      "buffer": 0,
      "byteOffset": 57440,
      "byteLength": 1568,
      "target": 34962,
      "byteStride": 8
    },
    {
      "buffer": 0,
      "byteOffset": 59008,
      "byteLength": 768,
      "target": 34963
    },
    {
      "buffer": 0,
      "byteOffset": 59776,
      "byteLength": 9216,
      "target": 34962,
      "byteStride": 12
    },
    {
      "buffer": 0,
      "byteOffset": 68992,
      "byteLength": 9216,
      "target": 34962,
      "byteStride": 12
    },
    {
      "buffer": 0,
      "byteOffset": 78208,
      "byteLength": 6144,
      "target": 34962,
      "byteStride": 8
    }
  ],
  "buffers": [
    {
      "byteLength": 84352,
      "uri": "data:application/octet-stream;base64,"
    }
  ],
  "accessors": [
    {
      "bufferView": 0,
      "componentType": 5126,
      "count": 768,
      "max": [
        1.2770559787750244,
        5,
        1.2770559787750244
      ],
      "min": [
        -1.2770559787750244,
        -5,
        -1.2770559787750244
      ],
      "type": "VEC3"
    },
    {
      "bufferView": 1,
      "componentType": 5126,
      "count": 768,
      "max": [
        0.995199978351593,
        1,
        0.995199978351593
      ],
      "min": [
        -0.995199978351593,
        -1,
        -0.995199978351593
      ],
      "type": "VEC3"
    },
    {
      "bufferView": 2,
      "componentType": 5126,
      "count": 768,
      "max": [
        1,
        1
      ],
      "min": [
        0,
        0
      ],
      "type": "VEC2"
    },
    {
      "bufferView": 3,
      "componentType": 5126,
      "count": 196,
      "max": [
        1.399999976158142,
        0.5,
        1.399999976158142
      ],
      "min": [
        -1.399999976158142,
        -0.5,
        -1.399999976158142
      ],
      "type": "VEC3"
    },
    {
      "bufferView": 4,
      "componentType": 5126,
      "count": 196,
      "max": [
        1,
        1,
        1
      ],
      "min": [
        -1,
        -1,
        -1
      ],
      "type": "VEC3"
    },
    {
      "bufferView": 5,
      "componentType": 5126,
      "count": 196,
      "max": [
        1,
        1
      ],
      "min": [
        0,
        0
      ],
      "type": "VEC2"
    },
    {
      "bufferView": 6,
      "componentType": 5123,
      "count": 384,
      "max": [
        195
      ],
      "min": [
        0
      ],
      "type": "SCALAR"
    },
    {
      "bufferView": 7,
      "componentType": 5126,
      "count": 196,
      "max": [
        0.029999999329447746,
        1.7450000047683716,
        0.029999999329447746
      ],
      "min": [
        -0.029999999329447746,
        -1.7450000047683716,
        -0.029999999329447746
      ],
      "type": "VEC3"
    },
    {
      "bufferView": 8,
      "componentType": 5126,
      "count": 196,
      "max": [
        1,
        1,
        1
      ],
      "min": [
        -1,
        -1,
        -1
      ],
      "type": "VEC3"
    },
    {
      "bufferView": 9,
      "componentType": 5126,
      "count": 196,
      "max": [
        1,
        1
      ],
      "min": [
        0,
        0
      ],
      "type": "VEC2"
    },
    {
      "bufferView": 10,
      "componentType": 5123,
      "count": 384,
      "max": [
        195
      ],
      "min": [
        0
      ],
      "type": "SCALAR"
    },
    {
      "bufferView": 11,
      "componentType": 5126,
      "count": 196,
      "max": [
        0.029999999329447746,
        1.7450000047683716,
        0.029999999329447746
      ],
      "min": [
        -0.029999999329447746,
        -1.7450000047683716,
        -0.029999999329447746
      ],
      "type": "VEC3"
    },
    {
      "bufferView": 12,
      "componentType": 5126,
      "count": 196,
      "max": [
        1,
        1,
        1
      ],
      "min": [
        -1,
        -1,
        -1
      ],
      "type": "VEC3"
    },
    {
      "bufferView": 13,
      "componentType": 5126,
      "count": 196,
      "max": [
        1,
        1
      ],
      "min": [
        0,
        0
      ],
      "type": "VEC2"
    },
    {
      "bufferView": 14,
      "componentType": 5123,
      "count": 384,
      "max": [
        195
      ],
      "min": [
        0
      ],
      "type": "SCALAR"
    },
    {
      "bufferView": 15,
      "componentType": 5126,
      "count": 196,
      "max": [
        0.029999999329447746,
        1.7450000047683716,
        0.029999999329447746
      ],
      "min": [
        -0.029999999329447746,
        -1.7450000047683716,
        -0.029999999329447746
      ],
      "type": "VEC3"
    },
    {
      "bufferView": 16,
      "componentType": 5126,
      "count": 196,
      "max": [
        1,
        1,
        1
      ],
      "min": [
        -1,
        -1,
        -1
      ],
      "type": "VEC3"
    },
    {
      "bufferView": 17,
      "componentType": 5126,
      "count": 196,
      "max": [
        1,
        1
      ],
      "min": [
        0,
        0
      ],
      "type": "VEC2"
    },
    {
      "bufferView": 18,
      "componentType": 5123,
      "count": 384,
      "max": [
        195
      ],
      "min": [
        0
      ],
      "type": "SCALAR"
    },
    {
      "bufferView": 19,
      "componentType": 5126,
      "count": 196,
      "max": [
        0.20000000298023224,
        1.600000023841858,
        0.20000000298023224
      ],
      "min": [
        -0.20000000298023224,
        -1.600000023841858,
        -0.20000000298023224
      ],
      "type": "VEC3"
    },
    {
      "bufferView": 20,
      "componentType": 5126,
      "count": 196,
      "max": [
        1,
        1,
        1
      ],
      "min": [
        -1,
        -1,
        -1
      ],
      "type": "VEC3"
    },
    {
      "bufferView": 21,
      "componentType": 5126,
      "count": 196,
      "max": [
        1,
        1
      ],
      "min": [
        0,
        0
      ],
      "type": "VEC2"
    },
    {
      "bufferView": 22,
      "componentType": 5123,
      "count": 384,
      "max": [
        195
      ],
      "min": [
        0
      ],
      "type": "SCALAR"
    },
    {
      "bufferView": 23,
      "componentType": 5126,
      "count": 768,
      "max": [
        1,
        0.05999999865889549,
        1
      ],
      "min": [
        -1,
        -0.05999999865889549,
        -1
      ],
      "type": "VEC3"
    },
    {
      "bufferView": 24,
      "componentType": 5126,
      "count": 768,
      "max": [
        0.995199978351593,
        1,
        0.995199978351593
      ],
      "min": [
        -0.995199978351593,
        -1,
        -0.995199978351593
      ],
      "type": "VEC3"
    },
    {
      "bufferView": 25,
      "componentType": 5126,
      "count": 768,
      "max": [
        1,
        1
      ],
      "min": [
        0,
        0
      ],
      "type": "VEC2"
    }
  ],
  "materials": [
    {
      "pbrMetallicRoughness": {
        "baseColorFactor": [
          0.040915196900556984,
          0.03954623527052923,
          0.06301001764564068,
          1
        ],
        "metallicFactor": 0.55,
        "roughnessFactor": 0.21
      }
    },
    {
      "pbrMetallicRoughness": {
        "baseColorFactor": [
          0.0343398068028541,
          0.038204371589236,
          0.08228270712149792,
          1
        ],
        "metallicFactor": 0.3,
        "roughnessFactor": 0.55
      }
    },
    {
      "pbrMetallicRoughness": {
        "baseColorFactor": [
          0.7304607400847158,
          0.7304607400847158,
          0.7304607400847158,
          1
        ],
        "metallicFactor": 0.27,
        "roughnessFactor": 0.76
      }
    },
    {
      "pbrMetallicRoughness": {
        "baseColorFactor": [
          0.3049873140591091,
          0.3049873140591091,
          0.3049873140591091,
          1
        ],
        "metallicFactor": 0.28,
        "roughnessFactor": 0.68
      }
    },
    {
      "pbrMetallicRoughness": {
        "baseColorFactor": [
          0.07421356837213867,
          0.7083757798856457,
          0.22696587349938613,
          1
        ],
        "metallicFactor": 0,
        "roughnessFactor": 1
      },
      "doubleSided": true
    }
  ],
  "meshes": [
    {
      "primitives": [
        {
          "mode": 4,
          "attributes": {
            "POSITION": 0,
            "NORMAL": 1,
            "TEXCOORD_0": 2
          },
          "material": 0
        }
      ]
    },
    {
      "primitives": [
        {
          "mode": 4,
          "attributes": {
            "POSITION": 3,
            "NORMAL": 4,
            "TEXCOORD_0": 5
          },
          "indices": 6,
          "material": 1
        }
      ]
    },
    {
      "primitives": [
        {
          "mode": 4,
          "attributes": {
            "POSITION": 7,
            "NORMAL": 8,
            "TEXCOORD_0": 9
          },
          "indices": 10,
          "material": 2
        }
      ]
    },
    {
      "primitives": [
        {
          "mode": 4,
          "attributes": {
            "POSITION": 11,
            "NORMAL": 12,
            "TEXCOORD_0": 13
          },
          "indices": 14,
          "material": 2
        }
      ]
    },
    {
      "primitives": [
        {
          "mode": 4,
          "attributes": {
            "POSITION": 15,
            "NORMAL": 16,
            "TEXCOORD_0": 17
          },
          "indices": 18,
          "material": 2
        }
      ]
    },
    {
      "primitives": [
        {
          "mode": 4,
          "attributes": {
            "POSITION": 19,
            "NORMAL": 20,
            "TEXCOORD_0": 21
          },
          "indices": 22,
          "material": 3
        }
      ]
    },
    {
      "primitives": [
        {
          "mode": 4,
          "attributes": {
            "POSITION": 23,
            "NORMAL": 24,
            "TEXCOORD_0": 25
          },
          "material": 4
        }
      ]
    }
  ]
}