{
  "asset": {
    "version": "2.0",
    "generator": "THREE.GLTFExporter r182"
  },
  "scenes": [
    {
      "name": "Scene",
      "nodes": [
        0,
        9,
        10,
        11,
        12,
        22,
        23,
        24,
        25
      ]
    }
  ],
  "scene": 0,
  "nodes": [
    {
      "matrix": [
        1,
        0,
        0,
        0,
        0,
        1,
        0,
        0,
        0,
        0,
        1,
        0,
        0,
        -0.6072407152427097,
        0,
        1
      ],
      "name": "Group",
      "children": [
        1,
        2,
        3,
        4,
        5,
        6,
        7,
        8
      ]
    },
    {
      "matrix": [
        0.3090169943749475,
        -0.9510565162951539,
        0,
        0,
        0.9510565162951539,
        0.3090169943749475,
        0,
        0,
        0,
        0,
        1,
        0,
        1.0553894776396122,
        -0.7773687475248097,
        0,
        1
      ],
      "name": "Group"
    },
    {
      "matrix": [
        -0.809016994374947,
        -0.5877852522924731,
        0,
        0,
        0.5877852522924731,
        -0.809016994374947,
        0,
        0,
        0,
        0,
        1,
        0,
        0.6538314001283262,
        -2.036755976992992,
        0,
        1
      ],
      "name": "Group"
    },
    {
      "matrix": [
        -0.8090169943749465,
        -0.5877852522924732,
        0,
        0,
        0.5877852522924732,
        -0.8090169943749465,
        0,
        0,
        0,
        0,
        1,
        0,
        0.6538314001283262,
        -2.036755976992992,
        0,
        1
      ],
      "name": "Group"
    },
    {
      "matrix": [
        -0.809016994374947,
        0.5877852522924731,
        0,
        0,
        -0.5877852522924731,
        -0.809016994374947,
        0,
        0,
        0,
        0,
        1,
        0,
        -0.6647788091282137,
        -2.036755976992992,
        0,
        1
      ],
      "name": "Group"
    },
    {
      "matrix": [
        0.30901699437494745,
        0.9510565162951536,
        0,
        0,
        -0.9510565162951536,
        0.30901699437494745,
        0,
        0,
        0,
        0,
        1,
        0,
        -1.0737184169399216,
        -0.7839693105796436,
        0,
        1
      ],
      "name": "Group"
    },
    {
      "name": "Group"
    },
    {
      "matrix": [
        1,
        0,
        0,
        0,
        0,
        2.220446049250313e-16,
        1,
        0,
        0,
        -1,
        2.220446049250313e-16,
        0,
        0,
        0.5803190742979543,
        0,
        1
      ],
      "name": "Torus",
      "mesh": 0
    },
    {
      "matrix": [
        1,
        0,
        0,
        0,
        0,
        1,
        0,
        0,
        0,
        0,
        1,
        0,
        0,
        0.5835447383137113,
        0,
        1
      ],
      "name": "Sphere",
      "mesh": 1
    },
    {
      "name": "AmbientLight"
    },
    {
      "matrix": [
        1,
        0,
        0,
        0,
        0,
        1,
        0,
        0,
        0,
        0,
        1,
        0,
        5,
        10,
        7.5,
        1
      ],
      "name": "DirectionalLight",
      "extensions": {
        "KHR_lights_punctual": {
          "light": 0
        }
      }
    },
    {
      "matrix": [
        1,
        0,
        0,
        0,
        0,
        1,
        0,
        0,
        0,
        0,
        1,
        0,
        0,
        10,
        0,
        1
      ],
      "name": "HemisphereLight"
    },
    {
      "matrix": [
        1,
        0,
        0,
        0,
        0,
        1,
        0,
        0,
        0,
        0,
        1,
        0,
        -0.4959858957791047,
        -0.4871494106376748,
        0,
        1
      ],
      "name": "Group",
      "children": [
        13,
        15,
        17
      ]
    },
    {
      "matrix": [
        -0.7071067811865475,
        0.7071067811865477,
        0,
        0,
        -0.7071067811865477,
        -0.7071067811865475,
        0,
        0,
        0,
        0,
        1,
        0,
        0,
        -0.9222955211944903,
        0,
        1
      ],
      "name": "Group",
      "children": [
        14
      ]
    },
    {
      "matrix": [
        0.8191520442889915,
        -0.5735764363510465,
        0,
        0,
        0.5735764363510465,
        0.8191520442889915,
        0,
        0,
        0,
        0,
        1,
        0,
        -0.05256332321891173,
        0.04299445081676995,
        0,
        1
      ],
      "name": "Torus",
      "mesh": 2
    },
    {
      "matrix": [
        0.7071067811865475,
        0.7071067811865477,
        0,
        0,
        -0.7071067811865477,
        0.7071067811865475,
        0,
        0,
        0,
        0,
        1,
        0,
        0,
        0,
        0,
        1
      ],
      "name": "Group",
      "children": [
        16
      ]
    },
    {
      "matrix": [
        0.8191520442889915,
        -0.5735764363510465,
        0,
        0,
        0.5735764363510465,
        0.8191520442889915,
        0,
        0,
        0,
        0,
        1,
        0,
        -0.015470477669922489,
        0.0059016052677807185,
        0,
        1
      ],
      "name": "Torus",
      "mesh": 3
    },
    {
      "matrix": [
        -1,
        0,
        -1.2246467991473532e-16,
        0,
        0,
        1,
        0,
        0,
        1.2246467991473532e-16,
        0,
        -1,
        0,
        0.9801583659337165,
        0,
        0,
        1
      ],
      "name": "Group",
      "children": [
        18,
        20
      ]
    },
    {
      "matrix": [
        -0.7071067811865475,
        0.7071067811865477,
        0,
        0,
        -0.7071067811865477,
        -0.7071067811865475,
        0,
        0,
        0,
        0,
        1,
        0,
        0,
        -0.9222955211944903,
        0,
        1
      ],
      "name": "Group",
      "children": [
        19
      ]
    },
    {
      "matrix": [
        0.8191520442889915,
        -0.5735764363510465,
        0,
        0,
        0.5735764363510465,
        0.8191520442889915,
        0,
        0,
        0,
        0,
        1,
        0,
        -0.05256332321891173,
        0.04299445081676995,
        0,
        1
      ],
      "name": "Torus",
      "mesh": 4
    },
    {
      "matrix": [
        0.7071067811865475,
        0.7071067811865477,
        0,
        0,
        -0.7071067811865477,
        0.7071067811865475,
        0,
        0,
        0,
        0,
        1,
        0,
        0,
        0,
        0,
        1
      ],
      "name": "Group",
      "children": [
        21
      ]
    },
    {
      "matrix": [
        0.8191520442889915,
        -0.5735764363510465,
        0,
        0,
        0.5735764363510465,
        0.8191520442889915,
        0,
        0,
        0,
        0,
        1,
        0,
        -0.015470477669922489,
        0.0059016052677807185,
        0,
        1
      ],
      "name": "Torus",
      "mesh": 5
    },
    {
      "matrix": [
        1,
        0,
        0,
        0,
        0,
        1,
        0,
        0,
        0,
        0,
        1,
        0,
        -0.00624784892089128,
        -0.40462639134692924,
        0,
        1
      ],
      "name": "Sphere",
      "mesh": 6
    },
    {
      "matrix": [
        1,
        0,
        0,
        0,
        0,
        1,
        0,
        0,
        0,
        0,
        1,
        0,
        -0.00624784892089128,
        -1.5901899650553932,
        0,
        1
      ],
      "name": "Sphere",
      "mesh": 7
    },
    {
      "matrix": [
        1,
        0,
        0,
        0,
        0,
        1,
        0,
        0,
        0,
        0,
        1,
        0,
        0.5930716315631624,
        -0.9859629132924984,
        0,
        1
      ],
      "name": "Sphere",
      "mesh": 8
    },
    {
      "matrix": [
        1,
        0,
        0,
        0,
        0,
        1,
        0,
        0,
        0,
        0,
        1,
        0,
        -0.603865195751808,
        -0.9859629132924984,
        0,
        1
      ],
      "name": "Sphere",
      "mesh": 9
    }
  ],
  "bufferViews": [
    {
      "buffer": 0,
      "byteOffset": 0,
      "byteLength": 7644,
      "target": 34962,
      "byteStride": 12
    },
    {
      "buffer": 0,
      "byteOffset": 7644,
      "byteLength": 7644,
      "target": 34962,
      "byteStride": 12
    },
    {
      "buffer": 0,
      "byteOffset": 15288,
      "byteLength": 5096,
      "target": 34962,
      "byteStride": 8
    },
    {
      "buffer": 0,
      "byteOffset": 20384,
      "byteLength": 6912,
      "target": 34963
    },
    {
      "buffer": 0,
      "byteOffset": 27296,
      "byteLength": 6732,
      "target": 34962,
      "byteStride": 12
    },
    {
      "buffer": 0,
      "byteOffset": 34028,
      "byteLength": 6732,
      "target": 34962,
      "byteStride": 12
    },
    {
      "buffer": 0,
      "byteOffset": 40760,
      "byteLength": 4488,
      "target": 34962,
      "byteStride": 8
    },
    {
      "buffer": 0,
      "byteOffset": 45248,
      "byteLength": 5760,
      "target": 34963
    },
    {
      "buffer": 0,
      "byteOffset": 51008,
      "byteLength": 7644,
      "target": 34962,
      "byteStride": 12
    },
    {
      "buffer": 0,
      "byteOffset": 58652,
      "byteLength": 7644,
      "target": 34962,
      "byteStride": 12
    },
    {
      "buffer": 0,
      "byteOffset": 66296,
      "byteLength": 5096,
      "target": 34962,
      "byteStride": 8
    },
    {
      "buffer": 0,
      "byteOffset": 71392,
      "byteLength": 6912,
      "target": 34963
    },
    {
      "buffer": 0,
      "byteOffset": 78304,
      "byteLength": 6732,
      "target": 34962,
      "byteStride": 12
    },
    {
      "buffer": 0,
      "byteOffset": 85036,
      "byteLength": 6732,
      "target": 34962,
      "byteStride": 12
    },
    {
      "buffer": 0,
      "byteOffset": 91768,
      "byteLength": 4488,
      "target": 34962,
      "byteStride": 8
    },
    {
      "buffer": 0,
      "byteOffset": 96256,
      "byteLength": 5760,
      "target": 34963
    },
    {
      "buffer": 0,
      "byteOffset": 102016,
      "byteLength": 6732,
      "target": 34962,
      "byteStride": 12
    },
    {
      "buffer": 0,
      "byteOffset": 108748,
      "byteLength": 6732,
      "target": 34962,
      "byteStride": 12
    },
    {
      "buffer": 0,
      "byteOffset": 115480,
      "byteLength": 4488,
      "target": 34962,
      "byteStride": 8
    },
    {
      "buffer": 0,
      "byteOffset": 119968,
      "byteLength": 5760,
      "target": 34963
    }
  ],
  "buffers": [
    {
      "byteLength": 125728,
      "uri": "data:application/octet-stream;base64,"
    }
  ],
  "accessors": [
    {
      "bufferView": 0,
      "componentType": 5126,
      "count": 637,
      "max": [
        0.07999999821186066,
        0.07999999821186066,
        0.019999999552965164
      ],
      "min": [
        -0.07999999821186066,
        -0.07999999821186066,
        -0.019999999552965164
      ],
      "type": "VEC3"
    },
    {
      "bufferView": 1,
      "componentType": 5126,
      "count": 637,
      "max": [
        1,
        1,
        1
      ],
      "min": [
        -1,
        -1,
        -1
      ],
      "type": "VEC3"
    },
    {
      "bufferView": 2,
      "componentType": 5126,
      "count": 637,
      "max": [
        1,
        1
      ],
      "min": [
        0,
        0
      ],
      "type": "VEC2"
    },
    {
      "bufferView": 3,
      "componentType": 5123,
      "count": 3456,
      "max": [
        636
      ],
      "min": [
        0
      ],
      "type": "SCALAR"
    },
    {
      "bufferView": 4,
      "componentType": 5126,
      "count": 561,
      "max": [
        0.05999999865889549,
        0.05999999865889549,
        0.05999999865889549
      ],
      "min": [
        -0.05999999865889549,
        -0.05999999865889549,
        -0.05999999865889549
      ],
      "type": "VEC3"
    },
    {
      "bufferView": 5,
      "componentType": 5126,
      "count": 561,
      "max": [
        1,
        1,
        1
      ],
      "min": [
        -1,
        -1,
        -1
      ],
      "type": "VEC3"
    },
    {
      "bufferView": 6,
      "componentType": 5126,
      "count": 561,
      "max": [
        1.015625,
        1
      ],
      "min": [
        -0.015625,
        0
      ],
      "type": "VEC2"
    },
    {
      "bufferView": 7,
      "componentType": 5123,
      "count": 2880,
      "max": [
        560
      ],
      "min": [
        0
      ],
      "type": "SCALAR"
    },
    {
      "bufferView": 8,
      "componentType": 5126,
      "count": 637,
      "max": [
        0.6499999761581421,
        0.6497894525527954,
        0.15000000596046448
      ],
      "min": [
        -0.6494801640510559,
        -0.6108002066612244,
        -0.15000000596046448
      ],
      "type": "VEC3"
    },
    {
      "bufferView": 9,
      "componentType": 5126,
      "count": 637,
      "max": [
        1,
        0.9996761083602905,
        1
      ],
      "min": [
        -1,
        -0.9996761083602905,
        -1
      ],
      "type": "VEC3"
    },
    {
      "bufferView": 10,
      "componentType": 5126,
      "count": 637,
      "max": [
        1,
        1
      ],
      "min": [
        0,
        0
      ],
      "type": "VEC2"
    },
    {
      "bufferView": 11,
      "componentType": 5123,
      "count": 3456,
      "max": [
        636
      ],
      "min": [
        0
      ],
      "type": "SCALAR"
    },
    {
      "bufferView": 12,
      "componentType": 5126,
      "count": 561,
      "max": [
        0.1599999964237213,
        0.1599999964237213,
        0.1599999964237213
      ],
      "min": [
        -0.1599999964237213,
        -0.1599999964237213,
        -0.1599999964237213
      ],
      "type": "VEC3"
    },
    {
      "bufferView": 13,
      "componentType": 5126,
      "count": 561,
      "max": [
        1,
        1,
        1
      ],
      "min": [
        -1,
        -1,
        -1
      ],
      "type": "VEC3"
    },
    {
      "bufferView": 14,
      "componentType": 5126,
      "count": 561,
      "max": [
        1.015625,
        1
      ],
      "min": [
        -0.015625,
        0
      ],
      "type": "VEC2"
    },
    {
      "bufferView": 15,
      "componentType": 5123,
      "count": 2880,
      "max": [
        560
      ],
      "min": [
        0
      ],
      "type": "SCALAR"
    },
    {
      "bufferView": 16,
      "componentType": 5126,
      "count": 561,
      "max": [
        0.15000000596046448,
        0.15000000596046448,
        0.15000000596046448
      ],
      "min": [
        -0.15000000596046448,
        -0.15000000596046448,
        -0.15000000596046448
      ],
      "type": "VEC3"
    },
    {
      "bufferView": 17,
      "componentType": 5126,
      "count": 561,
      "max": [
        1,
        1,
        1
      ],
      "min": [
        -1,
        -1,
        -1
      ],
      "type": "VEC3"
    },
    {
      "bufferView": 18,
      "componentType": 5126,
      "count": 561,
      "max": [
        1.015625,
        1
      ],
      "min": [
        -0.015625,
        0
      ],
      "type": "VEC2"
    },
    {
      "bufferView": 19,
      "componentType": 5123,
      "count": 2880,
      "max": [
        560
      ],
      "min": [
        0
      ],
      "type": "SCALAR"
    }
  ],
  "materials": [
    {
      "pbrMetallicRoughness": {
        "baseColorFactor": [
          0.033104766565152086,
          0.2746773120495699,
          0.31854677811435356,
          1
        ],
        "metallicFactor": 0.3,
        "roughnessFactor": 0.7
      },
      "emissiveFactor": [
        0.033104766565152086,
        0.2746773120495699,
        0.31854677811435356
      ],
      "extensions": {
        "KHR_materials_emissive_strength": {
          "emissiveStrength": 0.05
        }
      }
    },
    {
      "pbrMetallicRoughness": {
        "baseColorFactor": [
          0.033104766565152086,
          0.033104766565152086,
          0.033104766565152086,
          1
        ],
        "metallicFactor": 0,
        "roughnessFactor": 1
      }
    },
    {
      "pbrMetallicRoughness": {
        "baseColorFactor": [
          0.1912016827303171,
          0.8387990117372213,
          0.1912016827303171,
          1
        ],
        "metallicFactor": 0,
        "roughnessFactor": 0.9
      },
      "extensions": {
        "KHR_materials_unlit": {}
      }
    },
    {
      "pbrMetallicRoughness": {
        "baseColorFactor": [
          0.1912016827303171,
          0.8387990117372213,
          0.1912016827303171,
          1
        ],
        "metallicFactor": 0,
        "roughnessFactor": 0.9
      },
      "extensions": {
        "KHR_materials_unlit": {}
      }
    },
    {
      "pbrMetallicRoughness": {
        "baseColorFactor": [
          0.1912016827303171,
          0.8387990117372213,
          0.1912016827303171,
          1
        ],
        "metallicFactor": 0,
        "roughnessFactor": 0.9
      },
      "extensions": {
        "KHR_materials_unlit": {}
      }
    },
    {
      "pbrMetallicRoughness": {
        "baseColorFactor": [
          0.1912016827303171,
          0.8387990117372213,
          0.1912016827303171,
          1
        ],
        "metallicFactor": 0,
        "roughnessFactor": 0.9
      },
      "extensions": {
        "KHR_materials_unlit": {}
      }
    },
    {
      "pbrMetallicRoughness": {
        "baseColorFactor": [
          0.1912016827303171,
          0.8387990117372213,
          0.1912016827303171,
          1
        ],
        "metallicFactor": 0,
        "roughnessFactor": 0.9
      },
      "extensions": {
        "KHR_materials_unlit": {}
      }
    },
    {
      "pbrMetallicRoughness": {
        "baseColorFactor": [
          0.1912016827303171,
          0.8387990117372213,
          0.1912016827303171,
          1
        ],
        "metallicFactor": 0,
        "roughnessFactor": 0.9
      },
      "extensions": {
        "KHR_materials_unlit": {}
      }
    },
    {
      "pbrMetallicRoughness": {
        "baseColorFactor": [
          0.1912016827303171,
          0.8387990117372213,
          0.1912016827303171,
          1
        ],
        "metallicFactor": 0,
        "roughnessFactor": 0.9
      },
      "extensions": {
        "KHR_materials_unlit": {}
      }
    },
    {
      "pbrMetallicRoughness": {
        "baseColorFactor": [
          0.1912016827303171,
          0.8387990117372213,
          0.1912016827303171,
          1
        ],
        "metallicFactor": 0,
        "roughnessFactor": 0.9
      },
      "extensions": {
        "KHR_materials_unlit": {}
      }
    }
  ],
  "meshes": [
    {
      "primitives": [
        {
          "mode": 4,
          "attributes": {
            "POSITION": 0,
            "NORMAL": 1,
            "TEXCOORD_0": 2
          },
          "indices": 3,
          "material": 0
        }
      ]
    },
    {
      "primitives": [
        {
          "mode": 4,
          "attributes": {
            "POSITION": 4,
            "NORMAL": 5,
            "TEXCOORD_0": 6
          },
          "indices": 7,
          "material": 1
        }
      ]
    },
    {
      "primitives": [
        {
          "mode": 4,
          "attributes": {
            "POSITION": 8,
            "NORMAL": 9,
            "TEXCOORD_0": 10
          },
          "indices": 11,
          "material": 2
        }
      ]
    },
    {
      "primitives": [
        {
          "mode": 4,
          "attributes": {
            "POSITION": 8,
            "NORMAL": 9,
            "TEXCOORD_0": 10
          },
          "indices": 11,
          "material": 3
        }
      ]
    },
    {
      "primitives": [
        {
          "mode": 4,
          "attributes": {
            "POSITION": 8,
            "NORMAL": 9,
            "TEXCOORD_0": 10
          },
          "indices": 11,
          "material": 4
        }
      ]
    },
    {
      "primitives": [
        {
          "mode": 4,
          "attributes": {
            "POSITION": 8,
            "NORMAL": 9,
            "TEXCOORD_0": 10
          },
          "indices": 11,
          "material": 5
        }
      ]
    },
    {
      "primitives": [
        {
          "mode": 4,
          "attributes": {
            "POSITION": 12,
            "NORMAL": 13,
            "TEXCOORD_0": 14
          },
          "indices": 15,
          "material": 6
        }
      ]
    },
    {
      "primitives": [
        {
          "mode": 4,
          "attributes": {
            "POSITION": 16,
            "NORMAL": 17,
            "TEXCOORD_0": 18
          },
          "indices": 19,
          "material": 7
        }
      ]
    },
    {
      "primitives": [
        {
          "mode": 4,
          "attributes": {
            "POSITION": 16,
            "NORMAL": 17,
            "TEXCOORD_0": 18
          },
          "indices": 19,
          "material": 8
        }
      ]
    },
    {
      "primitives": [
        {
          "mode": 4,
          "attributes": {
            "POSITION": 16,
            "NORMAL": 17,
            "TEXCOORD_0": 18
          },
          "indices": 19,
          "material": 9
        }
      ]
    }
  ],
  "extensions": {
    "KHR_lights_punctual": {
      "lights": [
        {
          "name": "DirectionalLight",
          "color": [
            1,
            1,
            1
          ],
          "intensity": 1,
          "type": "directional"
        }
      ]
    }
  },
  "extensionsUsed": [
    "KHR_materials_emissive_strength",
    "KHR_lights_punctual",
    "KHR_materials_unlit"
  ]
}