{
  "asset": {
    "version": "2.0",
    "generator": "THREE.GLTFExporter r182"
  },
  "scenes": [
    {
      "name": "Scene",
      "nodes": [
        0,
        5,
        14,
        15,
        16,
        17,
        18
      ]
    }
  ],
  "scene": 0,
  "nodes": [
    {
      "name": "Group",
      "children": [
        1,
        3
      ]
    },
    {
      "name": "Group",
      "children": [
        2
      ]
    },
    {
      "matrix": [
        0.8829475928589263,
        0.46947156278589103,
        0,
        0,
        -0.46947156278589103,
        0.8829475928589263,
        0,
        0,
        0,
        0,
        1,
        0,
        0.3548891708162636,
        -0.8275655154336246,
        0,
        1
      ],
      "name": "Capsule",
      "mesh": 0
    },
    {
      "matrix": [
        -1,
        0,
        -1.2246467991473532e-16,
        0,
        0,
        1,
        0,
        0,
        1.2246467991473532e-16,
        0,
        -1,
        0,
        0,
        0,
        0,
        1
      ],
      "name": "Group",
      "children": [
        4
      ]
    },
    {
      "matrix": [
        0.8829475928589263,
        0.46947156278589103,
        0,
        0,
        -0.46947156278589103,
        0.8829475928589263,
        0,
        0,
        0,
        0,
        1,
        0,
        0.3548891708162636,
        -0.8275655154336246,
        0,
        1
      ],
      "name": "Capsule",
      "mesh": 0
    },
    {
      "matrix": [
        1,
        0,
        0,
        0,
        0,
        1,
        0,
        0,
        0,
        0,
        1,
        0,
        0,
        -0.6072407152427097,
        0,
        1
      ],
      "name": "pivot",
      "children": [
        6,
        7,
        8,
        9,
        10,
        11,
        12,
        13
      ]
    },
    {
      "matrix": [
        0.3090169943749475,
        -0.9510565162951539,
        0,
        0,
        0.9510565162951539,
        0.3090169943749475,
        0,
        0,
        0,
        0,
        1,
        0,
        1.0553894776396122,
        -0.7773687475248097,
        0,
        1
      ],
      "name": "Group"
    },
    {
      "matrix": [
        -0.809016994374947,
        -0.5877852522924731,
        0,
        0,
        0.5877852522924731,
        -0.809016994374947,
        0,
        0,
        0,
        0,
        1,
        0,
        0.6538314001283262,
        -2.036755976992992,
        0,
        1
      ],
      "name": "Group"
    },
    {
      "matrix": [
        -0.8090169943749465,
        -0.5877852522924732,
        0,
        0,
        0.5877852522924732,
        -0.8090169943749465,
        0,
        0,
        0,
        0,
        1,
        0,
        0.6538314001283262,
        -2.036755976992992,
        0,
        1
      ],
      "name": "Group"
    },
    {
      "matrix": [
        -0.809016994374947,
        0.5877852522924731,
        0,
        0,
        -0.5877852522924731,
        -0.809016994374947,
        0,
        0,
        0,
        0,
        1,
        0,
        -0.6647788091282137,
        -2.036755976992992,
        0,
        1
      ],
      "name": "Group"
    },
    {
      "matrix": [
        0.30901699437494745,
        0.9510565162951536,
        0,
        0,
        -0.9510565162951536,
        0.30901699437494745,
        0,
        0,
        0,
        0,
        1,
        0,
        -1.0737184169399216,
        -0.7839693105796436,
        0,
        1
      ],
      "name": "Group"
    },
    {
      "name": "Group"
    },
    {
      "matrix": [
        1,
        0,
        0,
        0,
        0,
        2.220446049250313e-16,
        1,
        0,
        0,
        -1,
        2.220446049250313e-16,
        0,
        0,
        0.5803190742979543,
        0,
        1
      ],
      "name": "Torus",
      "mesh": 1
    },
    {
      "matrix": [
        1,
        0,
        0,
        0,
        0,
        1,
        0,
        0,
        0,
        0,
        1,
        0,
        0,
        0.5835447383137113,
        0,
        1
      ],
      "name": "Sphere",
      "mesh": 2
    },
    {
      "name": "AmbientLight"
    },
    {
      "matrix": [
        1,
        0,
        0,
        0,
        0,
        1,
        0,
        0,
        0,
        0,
        1,
        0,
        5,
        10,
        7.5,
        1
      ],
      "name": "DirectionalLight",
      "extensions": {
        "KHR_lights_punctual": {
          "light": 0
        }
      }
    },
    {
      "matrix": [
        1,
        0,
        0,
        0,
        0,
        1,
        0,
        0,
        0,
        0,
        1,
        0,
        0,
        10,
        0,
        1
      ],
      "name": "HemisphereLight"
    },
    {
      "matrix": [
        1,
        0,
        0,
        0,
        0,
        -1,
        1.2246467991473532e-16,
        0,
        0,
        -1.2246467991473532e-16,
        -1,
        0,
        0,
        -4.277723752049735,
        0,
        1
      ],
      "name": "Group"
    },
    {
      "matrix": [
        1,
        0,
        0,
        0,
        0,
        -1,
        1.2246467991473532e-16,
        0,
        0,
        -1.2246467991473532e-16,
        -1,
        0,
        0,
        -2.995279618707797,
        0,
        1
      ],
      "name": "Group",
      "children": [
        19,
        21
      ]
    },
    {
      "name": "Group",
      "children": [
        20
      ]
    },
    {
      "matrix": [
        0.8829475928589263,
        0.46947156278589103,
        0,
        0,
        -0.46947156278589103,
        0.8829475928589263,
        0,
        0,
        0,
        0,
        1,
        0,
        0.3548891708162636,
        -0.8414902151017005,
        -1.7052838877597447e-18,
        1
      ],
      "name": "Capsule",
      "mesh": 0
    },
    {
      "matrix": [
        -1,
        0,
        -1.2246467991473532e-16,
        0,
        0,
        1,
        0,
        0,
        1.2246467991473532e-16,
        0,
        -1,
        0,
        0,
        0,
        0,
        1
      ],
      "name": "Group",
      "children": [
        22
      ]
    },
    {
      "matrix": [
        0.8829475928589263,
        0.46947156278589103,
        0,
        0,
        -0.46947156278589103,
        0.8829475928589263,
        0,
        0,
        0,
        0,
        1,
        0,
        0.3548891708162636,
        -0.8275655154336246,
        0,
        1
      ],
      "name": "Capsule",
      "mesh": 0
    }
  ],
  "bufferViews": [
    {
      "buffer": 0,
      "byteOffset": 0,
      "byteLength": 1080,
      "target": 34962,
      "byteStride": 12
    },
    {
      "buffer": 0,
      "byteOffset": 1080,
      "byteLength": 1080,
      "target": 34962,
      "byteStride": 12
    },
    {
      "buffer": 0,
      "byteOffset": 2160,
      "byteLength": 720,
      "target": 34962,
      "byteStride": 8
    },
    {
      "buffer": 0,
      "byteOffset": 2880,
      "byteLength": 864,
      "target": 34963
    },
    {
      "buffer": 0,
      "byteOffset": 3744,
      "byteLength": 7644,
      "target": 34962,
      "byteStride": 12
    },
    {
      "buffer": 0,
      "byteOffset": 11388,
      "byteLength": 7644,
      "target": 34962,
      "byteStride": 12
    },
    {
      "buffer": 0,
      "byteOffset": 19032,
      "byteLength": 5096,
      "target": 34962,
      "byteStride": 8
    },
    {
      "buffer": 0,
      "byteOffset": 24128,
      "byteLength": 6912,
      "target": 34963
    },
    {
      "buffer": 0,
      "byteOffset": 31040,
      "byteLength": 6732,
      "target": 34962,
      "byteStride": 12
    },
    {
      "buffer": 0,
      "byteOffset": 37772,
      "byteLength": 6732,
      "target": 34962,
      "byteStride": 12
    },
    {
      "buffer": 0,
      "byteOffset": 44504,
      "byteLength": 4488,
      "target": 34962,
      "byteStride": 8
    },
    {
      "buffer": 0,
      "byteOffset": 48992,
      "byteLength": 5760,
      "target": 34963
    }
  ],
  "buffers": [
    {
      "byteLength": 54752,
      "uri": "data:application/octet-stream;base64,"
    }
  ],
  "accessors": [
    {
      "bufferView": 0,
      "componentType": 5126,
      "count": 90,
      "max": [
        0.15000000596046448,
        0.8999999761581421,
        0.15000000596046448
      ],
      "min": [
        -0.15000000596046448,
        -0.8999999761581421,
        -0.15000000596046448
      ],
      "type": "VEC3"
    },
    {
      "bufferView": 1,
      "componentType": 5126,
      "count": 90,
      "max": [
        1,
        1,
        1
      ],
      "min": [
        -1,
        -1,
        -1
      ],
      "type": "VEC3"
    },
    {
      "bufferView": 2,
      "componentType": 5126,
      "count": 90,
      "max": [
        1.0625,
        1
      ],
      "min": [
        -0.0625,
        0
      ],
      "type": "VEC2"
    },
    {
      "bufferView": 3,
      "componentType": 5123,
      "count": 432,
      "max": [
        89
      ],
      "min": [
        0
      ],
      "type": "SCALAR"
    },
    {
      "bufferView": 4,
      "componentType": 5126,
      "count": 637,
      "max": [
        0.07999999821186066,
        0.07999999821186066,
        0.019999999552965164
      ],
      "min": [
        -0.07999999821186066,
        -0.07999999821186066,
        -0.019999999552965164
      ],
      "type": "VEC3"
    },
    {
      "bufferView": 5,
      "componentType": 5126,
      "count": 637,
      "max": [
        1,
        1,
        1
      ],
      "min": [
        -1,
        -1,
        -1
      ],
      "type": "VEC3"
    },
    {
      "bufferView": 6,
      "componentType": 5126,
      "count": 637,
      "max": [
        1,
        1
      ],
      "min": [
        0,
        0
      ],
      "type": "VEC2"
    },
    {
      "bufferView": 7,
      "componentType": 5123,
      "count": 3456,
      "max": [
        636
      ],
      "min": [
        0
      ],
      "type": "SCALAR"
    },
    {
      "bufferView": 8,
      "componentType": 5126,
      "count": 561,
      "max": [
        0.05999999865889549,
        0.05999999865889549,
        0.05999999865889549
      ],
      "min": [
        -0.05999999865889549,
        -0.05999999865889549,
        -0.05999999865889549
      ],
      "type": "VEC3"
    },
    {
      "bufferView": 9,
      "componentType": 5126,
      "count": 561,
      "max": [
        1,
        1,
        1
      ],
      "min": [
        -1,
        -1,
        -1
      ],
      "type": "VEC3"
    },
    {
      "bufferView": 10,
      "componentType": 5126,
      "count": 561,
      "max": [
        1.015625,
        1
      ],
      "min": [
        -0.015625,
        0
      ],
      "type": "VEC2"
    },
    {
      "bufferView": 11,
      "componentType": 5123,
      "count": 2880,
      "max": [
        560
      ],
      "min": [
        0
      ],
      "type": "SCALAR"
    }
  ],
  "materials": [
    {
      "pbrMetallicRoughness": {
        "baseColorFactor": [
          1,
          0.508881320845802,
          0.19461783043107173,
          1
        ],
        "metallicFactor": 0,
        "roughnessFactor": 1
      },
      "emissiveFactor": [
        1,
        0.508881320845802,
        0.19461783043107173
      ]
    },
    {
      "pbrMetallicRoughness": {
        "baseColorFactor": [
          0.033104766565152086,
          0.2746773120495699,
          0.31854677811435356,
          1
        ],
        "metallicFactor": 0.3,
        "roughnessFactor": 0.7
      },
      "emissiveFactor": [
        0.033104766565152086,
        0.2746773120495699,
        0.31854677811435356
      ],
      "extensions": {
        "KHR_materials_emissive_strength": {
          "emissiveStrength": 0.05
        }
      }
    },
    {
      "pbrMetallicRoughness": {
        "baseColorFactor": [
          0.033104766565152086,
          0.033104766565152086,
          0.033104766565152086,
          1
        ],
        "metallicFactor": 0,
        "roughnessFactor": 1
      }
    }
  ],
  "meshes": [
    {
      "primitives": [
        {
          "mode": 4,
          "attributes": {
            "POSITION": 0,
            "NORMAL": 1,
            "TEXCOORD_0": 2
          },
          "indices": 3,
          "material": 0
        }
      ]
    },
    {
      "primitives": [
        {
          "mode": 4,
          "attributes": {
            "POSITION": 4,
            "NORMAL": 5,
            "TEXCOORD_0": 6
          },
          "indices": 7,
          "material": 1
        }
      ]
    },
    {
      "primitives": [
        {
          "mode": 4,
          "attributes": {
            "POSITION": 8,
            "NORMAL": 9,
            "TEXCOORD_0": 10
          },
          "indices": 11,
          "material": 2
        }
      ]
    }
  ],
  "extensions": {
    "KHR_lights_punctual": {
      "lights": [
        {
          "name": "DirectionalLight",
          "color": [
            1,
            1,
            1
          ],
          "intensity": 1,
          "type": "directional"
        }
      ]
    }
  },
  "extensionsUsed": [
    "KHR_materials_emissive_strength",
    "KHR_lights_punctual"
  ]
}